<svg width="139" height="90" viewBox="0 0 139 90" fill="none" xmlns="http://www.w3.org/2000/svg">
<path d="M50.9878 89.6344C50.7582 89.6343 50.5306 89.5907 50.3173 89.5058C45.2328 89.4986 40.1487 89.4258 35.0661 89.2875C31.3898 89.1978 27.9786 89.1159 24.0294 89.1159C17.8292 89.1097 11.8847 86.6443 7.50019 82.2605C3.11566 77.8766 0.649192 71.9326 0.641968 65.7324C0.641968 57.9197 4.42356 50.7932 10.8211 46.4307C10.2972 43.8792 10.0333 41.2812 10.0336 38.6765C10.0336 17.4879 27.2729 0.244629 48.4694 0.244629C55.4105 0.251459 62.2209 2.13384 68.1803 5.69273C74.1396 9.25161 79.0266 14.3547 82.3243 20.4625C84.4941 18.2377 87.089 16.4718 89.9547 15.2697C92.8204 14.0676 95.8986 13.4537 99.0062 13.4646C102.559 13.4676 106.065 14.2792 109.257 15.8379C112.45 17.3965 115.246 19.6614 117.433 22.4609C119.621 25.2604 121.143 28.5211 121.883 31.9959C122.624 35.4707 122.564 39.0685 121.707 42.5166C126.613 43.9008 130.932 46.8489 134.009 50.9127C137.085 54.9765 138.751 59.9337 138.752 65.0307C138.752 77.9271 128.261 88.422 115.365 88.422C109.353 88.422 95.7041 88.7339 82.5076 89.038C69.1862 89.3498 56.6056 89.6344 50.9878 89.6344ZM48.4694 3.87418C29.2768 3.87418 13.6631 19.484 13.6631 38.6765C13.6631 41.4328 13.9906 44.1813 14.6339 46.844C14.724 47.2185 14.6924 47.612 14.5438 47.9674C14.3952 48.3228 14.1373 48.6216 13.8074 48.8205C10.8868 50.5697 8.47149 53.0486 6.79891 56.0137C5.12633 58.9789 4.25399 62.3281 4.26762 65.7324C4.27381 70.9703 6.35754 75.9918 10.0616 79.6951C13.7657 83.3985 18.7876 85.4812 24.0255 85.4864C28.0059 85.4864 31.4444 85.5682 35.1519 85.6579C39.4598 85.7593 44.1342 85.8723 50.4732 85.8723C50.7028 85.8728 50.9303 85.9165 51.1438 86.001C56.8083 85.9932 69.8256 85.6969 82.4179 85.4084C95.6379 85.1043 109.306 84.7924 115.361 84.7924C120.6 84.7862 125.622 82.7021 129.326 78.9973C133.03 75.2925 135.113 70.2696 135.118 65.0307C135.12 60.4358 133.519 55.9843 130.591 52.4427C127.664 48.9011 123.593 46.4911 119.08 45.6276C118.825 45.5792 118.583 45.4764 118.372 45.3264C118.16 45.1763 117.983 44.9825 117.853 44.758C117.723 44.5335 117.642 44.2837 117.617 44.0254C117.592 43.7672 117.623 43.5065 117.708 43.2612C118.723 40.2855 119.014 37.1107 118.557 34C118.1 30.8893 116.907 27.9324 115.079 25.3746C113.251 22.8168 110.839 20.7317 108.044 19.2923C105.248 17.8529 102.15 17.1007 99.0062 17.0981C95.9763 17.0894 92.9856 17.782 90.268 19.1219C87.5504 20.4617 85.1799 22.4123 83.3419 24.8211C83.1517 25.0718 82.8994 25.2684 82.6099 25.3915C82.3203 25.5146 82.0036 25.5599 81.6912 25.5228C81.3787 25.4858 81.0814 25.3677 80.8287 25.1804C80.5759 24.993 80.3766 24.7428 80.2503 24.4546C77.4959 18.3291 73.032 13.1288 67.3945 9.47809C61.7571 5.82742 55.1856 3.88157 48.4694 3.87418Z" fill="white"/>
<path d="M61.3456 54.7413C61.4328 54.7408 61.519 54.7598 61.598 54.7969C61.6769 54.834 61.7465 54.8883 61.8017 54.9558L63.061 56.3125C62.1025 57.4208 60.9128 58.3058 59.5757 58.905C58.2112 59.5249 56.5621 59.8328 54.6245 59.8328C52.9481 59.8328 51.4277 59.5405 50.0554 58.9596C48.7225 58.4069 47.5254 57.5716 46.5467 56.5113C45.5481 55.4158 44.7816 54.1294 44.2934 52.7297C43.7469 51.1732 43.4764 49.5333 43.4942 47.8838C43.4942 46.1217 43.7749 44.5038 44.3284 43.034C44.8252 41.6314 45.6131 40.3497 46.6405 39.2733C47.6678 38.1969 48.9114 37.3501 50.2893 36.7885C51.7671 36.1946 53.3478 35.8992 54.9403 35.9192C56.605 35.9192 58.0747 36.1882 59.3496 36.7184C60.6205 37.2486 61.7394 37.9737 62.7101 38.886L61.6653 40.3401C61.6019 40.4475 61.5153 40.5394 61.4119 40.6091C61.2863 40.6847 61.1411 40.7213 60.9947 40.7144C60.7998 40.7144 60.5581 40.6091 60.2774 40.3947C59.431 39.7525 58.4745 39.2703 57.4549 38.9717C56.6321 38.7397 55.7793 38.6319 54.9247 38.652C53.7161 38.652 52.6129 38.8665 51.607 39.2836C50.6212 39.6914 49.7383 40.3133 49.0223 41.1042C48.3011 41.8956 47.7358 42.8664 47.3342 44.0086C46.9166 45.2545 46.7136 46.5622 46.7338 47.876C46.7338 49.3341 46.9444 50.6323 47.3615 51.7746C47.7787 52.9168 48.3517 53.8837 49.0769 54.6712C49.802 55.4587 50.6519 56.063 51.6382 56.4762C52.6246 56.8894 53.6889 57.0961 54.8311 57.0961C55.529 57.0961 56.1566 57.0571 56.7141 56.9713C57.2436 56.9003 57.7638 56.7722 58.2658 56.5893C58.7301 56.4211 59.1736 56.2 59.5874 55.9304C59.9967 55.6614 60.4022 55.3417 60.8076 54.9753C60.9519 54.8335 61.1435 54.7502 61.3456 54.7413ZM87.8908 47.8877C87.8908 49.6382 87.614 51.2443 87.0565 52.7141C86.5355 54.1189 85.7358 55.4038 84.7057 56.4918C83.678 57.56 82.4357 58.3984 81.0606 58.9518C79.5627 59.5467 77.9627 59.8421 76.3511 59.8212C74.6319 59.8212 73.0646 59.5327 71.6495 58.9518C70.2767 58.3983 69.0369 57.5598 68.0121 56.4918C66.9798 55.4055 66.1799 54.1201 65.6613 52.7141C65.0907 51.1698 64.808 49.534 64.827 47.8877C64.827 46.1334 65.1038 44.5272 65.6613 43.0613C66.2188 41.5993 67.0024 40.3323 68.0121 39.2758C69.037 38.205 70.2765 37.3627 71.6495 36.8041C73.1425 36.2008 74.7409 35.9013 76.3511 35.9231C78.0743 35.9231 79.6415 36.2155 81.0606 36.8041C82.4757 37.3889 83.696 38.2193 84.7057 39.2758C85.7193 40.3362 86.5029 41.5993 87.0565 43.0613C87.614 44.5272 87.8908 46.1334 87.8908 47.8877ZM84.6394 47.8877C84.6394 46.4491 84.4445 45.1587 84.0507 44.0203C83.702 42.9501 83.1352 41.9638 82.3861 41.1237C81.6619 40.3298 80.7695 39.7078 79.774 39.3031C78.684 38.8651 77.5179 38.6478 76.3433 38.6637C75.0919 38.6637 73.9574 38.8782 72.9321 39.3031C71.9354 39.7077 71.0417 40.3297 70.3162 41.1237C69.591 41.9112 69.0335 42.8781 68.6398 44.0203C68.2499 45.1626 68.0511 46.4491 68.0511 47.8877C68.0511 49.3224 68.2499 50.6089 68.6398 51.7473C69.0335 52.8817 69.5871 53.8447 70.3162 54.6361C71.0374 55.4275 71.9107 56.0279 72.9321 56.445C73.9574 56.8661 75.0919 57.0766 76.3433 57.0766C77.6026 57.0766 78.7487 56.8661 79.774 56.445C80.7955 56.0279 81.6648 55.4236 82.3861 54.6361C83.1073 53.8447 83.657 52.8817 84.0507 51.7473C84.4484 50.6089 84.6394 49.3224 84.6394 47.8877ZM98.8145 68.8385C98.9978 68.8385 99.1459 68.8931 99.2551 69.0022C99.3088 69.0573 99.351 69.1226 99.3791 69.1943C99.4072 69.2659 99.4207 69.3424 99.4188 69.4194V70.4486H90.3196V69.8677C90.3256 69.5947 90.4374 69.3347 90.6315 69.1426L94.9979 64.7567C95.3604 64.3864 95.6879 64.0355 95.9881 63.6924C96.2844 63.3532 96.5378 63.0141 96.7483 62.6671C96.9588 62.324 97.1148 61.9771 97.2317 61.6262C97.3479 61.2607 97.4058 60.8791 97.4033 60.4956C97.4113 60.1367 97.3463 59.7799 97.2122 59.4469C97.101 59.163 96.9267 58.908 96.7025 58.7013C96.4783 58.4947 96.21 58.3417 95.9179 58.2539C95.2928 58.0515 94.6194 58.0542 93.9959 58.2617C93.4387 58.4496 92.9644 58.826 92.6548 59.326C92.5026 59.5793 92.3933 59.8559 92.3313 60.1447C92.2572 60.367 92.1519 60.5151 92.0233 60.5892C91.8907 60.6632 91.7114 60.6827 91.4736 60.6515L90.5886 60.4956C90.6783 59.8757 90.8498 59.326 91.111 58.8465C91.3644 58.3709 91.6919 57.9693 92.0818 57.6419C92.4716 57.3222 92.916 57.0766 93.4151 56.905C93.918 56.7374 94.4599 56.6555 95.0447 56.6555C95.6216 56.6555 96.1596 56.7413 96.6587 56.9089C97.1382 57.0589 97.5801 57.3097 97.9546 57.6446C98.3292 57.9794 98.6277 58.3906 98.8301 58.8504C99.0466 59.355 99.1529 59.8999 99.142 60.4488C99.142 60.9556 99.068 61.4313 98.9159 61.8601C98.7629 62.2973 98.556 62.7138 98.2999 63.0998C98.0387 63.4975 97.7386 63.8795 97.3994 64.2538C97.0602 64.6281 96.6976 65.0062 96.3195 65.3883L92.7211 69.0568C92.9745 68.9905 93.2318 68.9321 93.493 68.8931C93.7503 68.8502 94.0037 68.8307 94.2455 68.8307H98.8145V68.8385Z" fill="white"/>
</svg>
