<svg width="120" height="120" viewBox="0 0 120 120" fill="none" xmlns="http://www.w3.org/2000/svg">
<path fill-rule="evenodd" clip-rule="evenodd" d="M46.7872 89.9151C46.928 89.9711 47.0782 89.9999 47.2298 90C50.9377 90 59.2413 89.8122 68.0338 89.6063C76.7439 89.4056 85.7526 89.1997 89.7204 89.1997C98.2324 89.1997 105.157 82.2728 105.157 73.7608C105.156 70.3966 104.057 67.1247 102.026 64.4425C99.9955 61.7602 97.1447 59.8144 93.9069 58.9008C94.472 56.6249 94.5116 54.2503 94.0229 51.9568C93.5341 49.6633 92.5298 47.5112 91.0859 45.6634C89.6421 43.8157 87.7966 42.3208 85.6894 41.292C83.5821 40.2632 81.2684 39.7276 78.9234 39.7256C76.8723 39.7184 74.8406 40.1236 72.9491 40.917C71.0577 41.7105 69.345 42.876 67.9128 44.3444C65.7362 40.3131 62.5107 36.9449 58.5773 34.5959C54.644 32.2469 50.1489 31.0045 45.5675 31C31.5773 31 20.1987 42.3811 20.1987 56.3662C20.1986 58.0854 20.3727 59.8002 20.7185 61.4842C16.496 64.3636 14 69.0673 14 74.224C14.0048 78.3162 15.6327 82.2395 18.5266 85.1329C21.4206 88.0264 25.3441 89.6537 29.4364 89.6578C32.043 89.6578 34.2945 89.7118 36.721 89.771C40.0756 89.8623 43.4313 89.9103 46.7872 89.9151ZM54.2329 67.006C54.1808 66.9815 54.1239 66.969 54.0663 66.9693C53.9329 66.9752 53.8064 67.0301 53.7112 67.1237C53.4436 67.3656 53.176 67.5766 52.9058 67.7541C52.6327 67.9321 52.34 68.078 52.0335 68.189C51.7022 68.3097 51.3589 68.3943 51.0094 68.4412C50.6414 68.4978 50.2271 68.5235 49.7665 68.5235C49.0126 68.5235 48.3101 68.3871 47.6591 68.1144C47.0081 67.8416 46.4472 67.4428 45.9686 66.923C45.49 66.4032 45.1117 65.7651 44.8364 65.0111C44.561 64.2572 44.4221 63.4003 44.4221 62.438C44.4087 61.5708 44.5427 60.7077 44.8184 59.8854C45.0834 59.1315 45.4565 58.4908 45.9325 57.9684C46.4051 57.4463 46.9878 57.0359 47.6385 56.7667C48.3024 56.4914 49.0306 56.3499 49.8283 56.3499C50.3924 56.3366 50.9553 56.4077 51.4983 56.5609C52.1713 56.758 52.8026 57.0763 53.3613 57.5001C53.5465 57.6416 53.7061 57.7111 53.8347 57.7111C53.9313 57.7157 54.0272 57.6915 54.11 57.6416C54.1783 57.5956 54.2355 57.535 54.2773 57.4641L54.9669 56.5043C54.3262 55.9022 53.5877 55.4235 52.7488 55.0736C51.9074 54.7236 50.9373 54.5461 49.8386 54.5461C48.7875 54.5329 47.7442 54.7279 46.7688 55.1199C45.8593 55.4906 45.0385 56.0495 44.3605 56.7599C43.6824 57.4704 43.1623 58.3163 42.8345 59.2421C42.4691 60.2122 42.2838 61.2801 42.2838 62.4431C42.2721 63.5319 42.4506 64.6143 42.8113 65.6416C43.1335 66.5654 43.6394 67.4144 44.2986 68.1375C44.9445 68.8374 45.7347 69.3887 46.6144 69.7535C47.5202 70.1369 48.5237 70.3299 49.6302 70.3299C50.909 70.3299 51.9975 70.1266 52.8981 69.7175C53.7807 69.3219 54.5659 68.7379 55.1985 68.0063L54.3674 67.1108C54.3309 67.0663 54.285 67.0305 54.2329 67.006ZM71.0363 65.6313C71.4043 64.6612 71.5869 63.6011 71.5869 62.4457C71.5869 61.2878 71.4043 60.2276 71.0363 59.2601C70.6709 58.2952 70.1537 57.4615 69.4847 56.7616C68.8182 56.0643 68.0128 55.5162 67.0788 55.1302C66.1421 54.7417 65.1077 54.5487 63.9704 54.5487C62.9076 54.5343 61.8526 54.732 60.8672 55.1302C59.961 55.4989 59.1429 56.0548 58.4664 56.7616C57.8 57.4589 57.2827 58.2952 56.9148 59.2601C56.5468 60.2276 56.3641 61.2878 56.3641 62.4457C56.3516 63.5323 56.5382 64.612 56.9148 65.6313C57.2571 66.5592 57.7851 67.4077 58.4664 68.1247C59.1428 68.8296 59.9611 69.383 60.8672 69.7483C61.8012 70.1317 62.8356 70.3221 63.9704 70.3221C65.0341 70.336 66.0901 70.141 67.0788 69.7483C67.9864 69.3831 68.8064 68.8297 69.4847 68.1247C70.1646 67.4066 70.6924 66.5585 71.0363 65.6313ZM69.0524 59.8931C69.3123 60.6445 69.4409 61.4962 69.4409 62.4457C69.4409 63.3926 69.3148 64.2418 69.0524 64.9931C68.7925 65.7419 68.4297 66.3775 67.9536 66.8998C67.4776 67.4196 66.9038 67.8185 66.2296 68.0938C65.5529 68.3717 64.7964 68.5106 63.9652 68.5106C63.1393 68.5106 62.3905 68.3717 61.7137 68.0938C61.0396 67.8185 60.4632 67.4222 59.9871 66.8998C59.506 66.3775 59.1406 65.7419 58.8807 64.9931C58.6234 64.2418 58.4921 63.3926 58.4921 62.4457C58.4921 61.4962 58.6234 60.6471 58.8807 59.8931C59.1406 59.1392 59.5085 58.501 59.9871 57.9813C60.466 57.4572 61.0559 57.0466 61.7137 56.7796C62.3905 56.4991 63.1393 56.3576 63.9652 56.3576C64.7405 56.3471 65.5102 56.4905 66.2296 56.7796C66.8866 57.0467 67.4757 57.4573 67.9536 57.9813C68.4481 58.5358 68.8222 59.1868 69.0524 59.8931ZM79.0877 76.3819C79.0157 76.3099 78.9179 76.2739 78.7969 76.2739V76.2687H75.7812C75.6217 76.2687 75.4544 76.2816 75.2846 76.3099C75.1122 76.3356 74.9424 76.3742 74.7751 76.418L77.1501 73.9966C77.3997 73.7444 77.639 73.4949 77.8629 73.2478C78.0868 73.0008 78.2849 72.7486 78.4573 72.4862C78.6263 72.2314 78.7628 71.9565 78.8638 71.6679C78.9642 71.3849 79.0131 71.0709 79.0131 70.7364C79.0203 70.3741 78.9501 70.0145 78.8072 69.6814C78.6736 69.3779 78.4766 69.1066 78.2294 68.8855C77.9822 68.6645 77.6905 68.4989 77.374 68.4C77.0446 68.2893 76.6895 68.2327 76.3087 68.2327C75.9227 68.2327 75.5651 68.2868 75.2331 68.3974C74.9038 68.5106 74.6104 68.6727 74.3531 68.8837C74.0958 69.0999 73.8796 69.3649 73.7124 69.6789C73.54 69.9954 73.4268 70.3582 73.3676 70.7673L73.9517 70.8702C74.1086 70.8908 74.227 70.8779 74.3145 70.8291C74.3994 70.7802 74.4689 70.6824 74.5178 70.5357C74.5587 70.3451 74.6309 70.1625 74.7313 69.9954C74.9356 69.6653 75.2487 69.4169 75.6165 69.2929C76.028 69.1559 76.4725 69.1541 76.8851 69.2877C77.0779 69.3456 77.2549 69.4466 77.4029 69.583C77.5509 69.7194 77.666 69.8877 77.7394 70.0751C77.8278 70.2949 77.8707 70.5304 77.8655 70.7673C77.8671 71.0204 77.8289 71.2723 77.7522 71.5135C77.675 71.7451 77.5721 71.9741 77.4332 72.2006C77.2942 72.4296 77.127 72.6534 76.9314 72.8773C76.7333 73.1037 76.5171 73.3353 76.2778 73.5798L73.3959 76.4746C73.2678 76.6014 73.194 76.773 73.19 76.9532V77.3366H79.1958V76.6573C79.197 76.6065 79.1881 76.556 79.1696 76.5087C79.151 76.4614 79.1232 76.4183 79.0877 76.3819Z" fill="white"/>
</svg>
