<svg width="1248" height="77" viewBox="0 0 1248 77" fill="none" xmlns="http://www.w3.org/2000/svg">
<path d="M1247.56 0.9375V20.3125H1214.69V76H1191.81V20.3125H1158.94V0.9375H1247.56Z" fill="white"/>
<path d="M1126.44 21C1124.56 19.9583 1121.9 19.4375 1118.44 19.4375H1104.5C1100.96 19.4375 1098.25 19.4583 1096.38 19.5C1094.54 19.5417 1092.88 19.5833 1091.38 19.625C1089.08 19.625 1087.17 20.1042 1085.62 21.0625C1084.12 21.9792 1083.06 23.3125 1082.44 25.0625C1082.1 25.9792 1081.85 27.3125 1081.69 29.0625C1081.52 30.7708 1081.44 33.0833 1081.44 36C1081.44 43.5833 1081.69 48.4167 1082.19 50.5C1083.4 55.125 1087.19 57.4375 1093.56 57.4375L1108.69 57.5L1121.31 57.5625C1126.77 57.5625 1129.79 54.9792 1130.38 49.8125L1130.5 47.0625H1153.38V50.75C1153.38 56.875 1152.71 61.6875 1151.38 65.1875C1150.88 66.7708 1150 68.1667 1148.75 69.375C1145.29 72.9583 1138.98 75.1875 1129.81 76.0625C1127.94 76.2292 1125.9 76.3958 1123.69 76.5625C1121.48 76.7292 1118.88 76.8125 1115.88 76.8125L1107.06 76.875C1103.69 76.875 1100.81 76.8542 1098.44 76.8125C1096.06 76.7708 1093.79 76.7292 1091.62 76.6875C1090.21 76.6875 1088.65 76.6042 1086.94 76.4375C1085.27 76.3125 1083.48 76.125 1081.56 75.875C1078.31 75.5 1075.31 74.8125 1072.56 73.8125C1069.27 72.8125 1066.69 71.125 1064.81 68.75C1061.98 65.5 1060.23 61.5625 1059.56 56.9375C1058.9 52.3125 1058.56 46.7083 1058.56 40.125C1058.56 33.2917 1058.79 27.4583 1059.25 22.625C1059.25 21.25 1059.4 19.9167 1059.69 18.625C1060.02 17.2917 1060.48 15.9167 1061.06 14.5C1063.69 7.45833 1069.38 3.1875 1078.12 1.6875C1084.88 0.604167 1094.15 0.0625 1105.94 0.0625H1116.38C1129.17 0.0625 1138.17 1.33333 1143.38 3.875C1147.12 5.70833 1149.79 9.27083 1151.38 14.5625C1152.04 16.8958 1152.38 21.4375 1152.38 28.1875H1129.5C1129.5 24.5208 1128.48 22.125 1126.44 21Z" fill="white"/>
<path d="M982.125 0.9375H1011.19L1052.62 76H1026.69L1019.69 63.125H973.375L966.625 76H940.688L982.125 0.9375ZM982.5 45.625H1010.38L996.75 20L982.5 45.625Z" fill="white"/>
<path d="M903.938 0.9375L913.438 1.0625C915.354 1.0625 917.188 1.1875 918.938 1.4375C920.688 1.64583 922.521 1.97917 924.438 2.4375C931.354 4.0625 935.688 8.39583 937.438 15.4375C938.479 19.5625 939 23.9792 939 28.6875C939 42.2292 935.958 50.8542 929.875 54.5625C927.5 56.0625 924.5 57.0417 920.875 57.5C919.667 57.625 918.458 57.7292 917.25 57.8125C916.083 57.8958 914.875 57.9375 913.625 57.9375H872.375V76H849.5V0.9375H903.938ZM872.375 20.3125V38.5625H901.188L908.312 38.4375C911.521 38.4375 913.625 37.5625 914.625 35.8125C915.625 34.0625 916.125 31.75 916.125 28.875C916.125 26.2083 915.562 24.1667 914.438 22.75C913.354 21.2917 911.729 20.5625 909.562 20.5625L899.812 20.3125H872.375Z" fill="white"/>
<path d="M706.625 0.9375H743L769.188 49.1875L795.938 0.9375H832.312V76H809.438V21.25L778.25 76H760.188L729.5 21V76H706.625V0.9375Z" fill="white"/>
<path d="M665.25 0.9375H688.125V76H665.25V0.9375Z" fill="white"/>
<path d="M524.062 0.9375L567.312 56.9375V0.9375H590.188V76H553.812L510.562 19.875V76H487.688V0.9375H524.062Z" fill="white"/>
<path d="M405.75 0.9375H434.812L476.25 76H450.312L443.312 63.125H397L390.25 76H364.312L405.75 0.9375ZM406.125 45.625H434L420.375 20L406.125 45.625Z" fill="white"/>
<path d="M227.5 0.9375H263.875L290.062 49.1875L316.812 0.9375H353.188V76H330.312V21.25L299.125 76H281.062L250.375 21V76H227.5V0.9375Z" fill="white"/>
<path d="M114.625 0.9375H137.5V43.5L137.562 47.6875C137.562 50.6042 138.479 52.8958 140.312 54.5625C142.146 56.1875 144.833 57 148.375 57C149.833 57 152.042 57.0833 155 57.25C157.958 57.4167 160.167 57.5 161.625 57.5C168.625 57.5 173.667 57.3125 176.75 56.9375C179.833 56.5625 182.208 55.625 183.875 54.125C185.542 52.5833 186.375 50.4375 186.375 47.6875L186.562 41.9375V0.9375H209.438V50.125L209.125 53.625C209.125 56.8333 208.646 59.6875 207.688 62.1875C206.771 64.6875 205.5 66.875 203.875 68.75C201 72 196.333 74.3125 189.875 75.6875L186.5 76.3125C183 76.6875 173.875 76.875 159.125 76.875L143 76.625C129.917 76.625 121.792 72.8542 118.625 65.3125C117.417 62.6458 116.479 59.9375 115.812 57.1875C115.146 54.3958 114.812 51.4583 114.812 48.375L114.625 42.3125V0.9375Z" fill="white"/>
<path d="M0.125 0.9375H23V29H73.875V0.9375H96.75V76H73.875V48.375H23V76H0.125V0.9375Z" fill="white"/>
</svg>
