<svg width="99" height="101" viewBox="0 0 99 101" fill="none" xmlns="http://www.w3.org/2000/svg">
<path d="M51.3863 51.341C51.8737 50.4967 52.1338 49.5265 52.1343 48.5418C52.1321 45.4556 49.6192 42.9428 46.5281 42.9396C44.5319 42.9392 42.6728 44.0164 41.6738 45.7467C41.1841 46.5949 40.9263 47.5612 40.9258 48.5459C40.9289 51.6353 43.4387 54.149 46.532 54.1481C48.5262 54.1473 50.3873 53.0714 51.3863 51.341Z" fill="white"/>
<path d="M58.4903 48.5467C57.4211 48.5453 56.5238 49.3361 56.3852 50.395C56.3852 50.395 56.5109 50.2924 56.2878 51.1431C56.0628 51.9929 55.7237 52.8191 55.2753 53.5957C54.8259 54.3742 54.2819 55.0771 53.6576 55.6989C53.0322 56.3175 53.0594 56.1553 53.0594 56.1553C52.2119 56.8049 51.9732 57.9814 52.5113 58.9026L64.3032 79.33C64.5982 79.8401 65.0901 80.2064 65.6642 80.3389C66.2394 80.4691 66.8405 80.3569 67.3322 80.0249C67.3322 80.0249 68.4289 79.4314 69.8114 78.3474C73.6213 75.3674 76.8472 71.6653 79.2866 67.4586C81.7111 63.2407 83.302 58.6 83.9801 53.8065C84.2277 52.0672 84.1933 50.8207 84.1933 50.8207C84.2327 50.2328 84.0316 49.6522 83.63 49.2212C83.2285 48.7902 82.6651 48.5472 82.077 48.5449L58.4903 48.5467Z" fill="white"/>
<path d="M60.6978 13.4823C56.2101 11.672 51.3914 10.7297 46.5269 10.722C41.6637 10.7257 36.851 11.6719 32.3585 13.4799C30.7294 14.1402 29.6653 14.7922 29.6653 14.7922C29.1372 15.0448 28.7372 15.5122 28.5631 16.0806C28.3893 16.6439 28.4598 17.2528 28.7536 17.7649L40.5479 38.1885C41.0797 39.1115 42.2175 39.495 43.202 39.0865C43.202 39.0865 43.0469 39.0288 43.8983 38.7955C44.7451 38.5703 45.6312 38.4473 46.5275 38.4445C47.4275 38.4491 48.3092 38.5679 49.1567 38.797C50.008 39.0284 49.8532 39.085 49.8532 39.085C50.8401 39.4954 51.9754 39.1156 52.5112 38.1876L64.3036 17.7625C64.5979 17.2527 64.6665 16.6419 64.4935 16.0773C64.3204 15.5127 63.9197 15.0479 63.3913 14.7905C63.3913 14.7905 62.3272 14.1365 60.6978 13.4823Z" fill="white"/>
<path d="M39.9991 56.1538C39.9991 56.1538 40.0275 56.3162 39.4014 55.6946C38.7793 55.0753 38.2333 54.375 37.7815 53.5939C37.3339 52.815 36.9969 51.9913 36.7709 51.1414C36.5449 50.2915 36.6737 50.3949 36.6737 50.3949C36.5364 49.336 35.6353 48.5423 34.5701 48.5433L10.9833 48.545C10.3941 48.5446 9.83038 48.7899 9.42939 49.2222C9.02655 49.6533 8.82165 50.2334 8.8647 50.821C8.8647 50.821 8.83208 52.0685 9.07702 53.8055C9.75753 58.6001 11.3444 63.2411 13.7705 67.4586C16.2106 71.6657 19.4373 75.3657 23.2465 78.3508C24.63 79.4309 25.7284 80.0253 25.7284 80.0253C26.2154 80.3542 26.8161 80.4727 27.3938 80.3364C27.9683 80.2061 28.4629 79.8412 28.7583 79.3295L40.5508 58.9043C41.0855 57.9784 40.848 56.8033 39.9991 56.1538Z" fill="white"/>
</svg>
