<svg width="120" height="120" viewBox="0 0 120 120" fill="none" xmlns="http://www.w3.org/2000/svg">
<path d="M64.0792 61.4955C64.4582 60.845 64.6611 60.0978 64.6629 59.3398C64.6654 56.9642 62.7211 55.0334 60.3253 55.0352C58.778 55.0376 57.3355 55.8693 56.5589 57.2026C56.1781 57.8562 55.977 58.6003 55.9752 59.3583C55.9734 61.7364 57.9152 63.6678 60.3128 63.663C61.8585 63.6596 63.3025 62.8289 64.0792 61.4955Z" fill="white"/>
<path d="M69.6146 59.3606C68.7861 59.361 68.0897 59.9708 67.9808 60.7859C67.9808 60.7859 68.0783 60.7067 67.9043 61.3617C67.7287 62.016 67.4648 62.6524 67.1163 63.2506C66.767 63.8503 66.3445 64.392 65.8598 64.8714C65.3744 65.3484 65.3957 65.2235 65.3957 65.2235C64.738 65.7246 64.5514 66.6303 64.9672 67.3385L74.0768 83.0431C74.3046 83.4352 74.6853 83.7164 75.13 83.8176C75.5756 83.9171 76.0415 83.8299 76.423 83.5737C76.423 83.5737 77.2737 83.1155 78.3465 82.2793C81.3029 79.9808 83.8078 77.1273 85.7039 73.8865C87.5886 70.6372 88.8277 67.0636 89.3598 63.3736C89.5541 62.0347 89.5291 61.0755 89.5291 61.0755C89.5604 60.623 89.4054 60.1765 89.0948 59.8453C88.7842 59.5142 88.3481 59.328 87.8923 59.327L69.6146 59.3606Z" fill="white"/>
<path d="M71.3107 32.3467C67.8348 30.9593 64.1012 30.2405 60.3308 30.2412C56.5614 30.2508 52.8298 30.9857 49.3452 32.3835C48.0816 32.894 47.2559 33.3973 47.2559 33.3973C46.8462 33.5925 46.5355 33.9528 46.3998 34.3906C46.2643 34.8244 46.3181 35.293 46.5451 35.6868L55.6586 51.3918C56.0696 52.1015 56.951 52.3952 57.7146 52.0794C57.7146 52.0794 57.5944 52.0352 58.2547 51.8545C58.9114 51.68 59.5984 51.5841 60.293 51.5807C60.9906 51.583 61.6739 51.6732 62.3304 51.8484C62.99 52.0254 62.8699 52.0692 62.8699 52.0692C63.6343 52.3837 64.5147 52.0898 64.9313 51.3748L74.0997 35.6364C74.3285 35.2437 74.3824 34.7734 74.2491 34.339C74.1157 33.9046 73.8058 33.5474 73.3966 33.35C73.3966 33.35 72.5728 32.848 71.3107 32.3467Z" fill="white"/>
<path d="M55.2523 65.1783C55.2523 65.1783 55.2741 65.3032 54.7897 64.8256C54.3083 64.3497 53.8861 63.8114 53.537 63.2108C53.1911 62.6119 52.9311 61.9783 52.7571 61.3244C52.5831 60.6705 52.6827 60.7499 52.6827 60.7499C52.5778 59.935 51.8805 59.3253 51.0548 59.3275L32.7729 59.361C32.3162 59.3615 31.8789 59.5511 31.5675 59.8844C31.2547 60.2168 31.0951 60.6636 31.1276 61.1158C31.1276 61.1158 31.1006 62.0761 31.2881 63.4129C31.809 67.1026 33.0325 70.6728 34.9072 73.916C36.7927 77.151 39.2886 79.9947 42.2369 82.2872C43.3078 83.1168 44.1583 83.5728 44.1583 83.5728C44.5353 83.8253 45.0008 83.9157 45.4488 83.81C45.8942 83.7089 46.278 83.4274 46.5078 83.033L55.6761 67.2947C56.0918 66.5813 55.9094 65.6771 55.2523 65.1783Z" fill="white"/>
</svg>
