<svg width="120" height="120" viewBox="0 0 120 120" fill="none" xmlns="http://www.w3.org/2000/svg">
<path fill-rule="evenodd" clip-rule="evenodd" d="M30.5267 89.469C30.8803 89.823 31.3174 90 31.8379 90H87.1584C87.6765 90 88.1136 89.8242 88.4696 89.4727C88.8256 89.1211 89.0024 88.6836 89 88.1599C88.9975 87.6363 88.8207 87.1975 88.4696 86.8435C88.1185 86.4895 87.6814 86.3125 87.1584 86.3125H82.7681V62.3438H87.1584C87.6765 62.3438 88.1136 62.168 88.4696 61.8164C88.8256 61.4649 89.0024 61.0273 89 60.5037C88.9975 59.9801 88.8207 59.5413 88.4696 59.1873C88.1185 58.8333 87.6814 58.6562 87.1584 58.6562H82.7681V34.6875H87.1584C87.6765 34.6875 88.1136 34.5117 88.4696 34.1602C88.8256 33.8086 89.0024 33.3711 89 32.8474C88.9975 32.3238 88.8207 31.885 88.4696 31.531C88.1185 31.177 87.6814 31 87.1584 31H31.8379C31.3223 31 30.8864 31.1758 30.5304 31.5273C30.1744 31.8789 29.9976 32.3164 30 32.8401C30.0025 33.3637 30.1793 33.8025 30.5304 34.1565C30.8815 34.5105 31.3186 34.6875 31.8416 34.6875H36.3018V58.6562H31.8416C31.3235 58.6562 30.8864 58.832 30.5304 59.1836C30.1744 59.5351 29.9976 59.9727 30 60.4963C30.0025 61.0199 30.1793 61.4587 30.5304 61.8127C30.8815 62.1667 31.3186 62.3438 31.8416 62.3438H36.3018V86.3125H31.8416C31.3137 86.3125 30.8754 86.4883 30.5267 86.8398C30.178 87.1914 30.0025 87.6289 30 88.1526C29.9976 88.6762 30.1731 89.115 30.5267 89.469ZM59.5274 72.9119C62.081 72.9119 64.2553 72.0269 66.0502 70.2569C67.8451 68.4919 68.7426 66.3531 68.7426 63.8407C68.7426 61.8445 68.1668 60.1298 67.0152 58.6966C65.8636 57.2634 63.3701 54.3196 59.5348 49.8651C55.7338 54.2974 53.2489 57.2413 52.0801 58.6966C50.9114 60.152 50.327 61.8728 50.327 63.8591C50.327 66.3617 51.222 68.4955 53.012 70.2606C54.7995 72.0282 56.9713 72.9119 59.5274 72.9119Z" fill="white"/>
</svg>
