<svg width="81" height="80" viewBox="0 0 81 80" fill="none" xmlns="http://www.w3.org/2000/svg">
<path d="M3.42589 79.5057C2.72802 79.5057 2.14207 79.2685 1.66805 78.7939C1.19402 78.3193 0.958656 77.731 0.961948 77.029C0.96524 76.327 1.20061 75.7403 1.66805 75.2691C2.13549 74.7978 2.72308 74.5621 3.43083 74.5621H9.41045V42.4285H3.43083C2.72967 42.4285 2.14372 42.1912 1.67299 41.7167C1.20225 41.2421 0.96524 40.6538 0.961948 39.9518C0.958656 39.2498 1.19567 38.6631 1.67299 38.1919C2.1503 37.7206 2.73625 37.4849 3.43083 37.4849H9.41045V5.35134H3.43083C2.72967 5.35134 2.14372 5.11405 1.67299 4.63946C1.20225 4.16487 0.96524 3.57658 0.961948 2.87458C0.958656 2.17259 1.19567 1.58595 1.67299 1.11465C2.1503 0.643362 2.7346 0.407715 3.42589 0.407715H77.591C78.2922 0.407715 78.8781 0.645009 79.3489 1.1196C79.8196 1.59419 80.0566 2.18248 80.0599 2.88447C80.0632 3.58647 79.8262 4.17311 79.3489 4.6444C78.8716 5.11569 78.2856 5.35134 77.591 5.35134H71.7052V37.4849H77.591C78.2922 37.4849 78.8781 37.7222 79.3489 38.1968C79.8196 38.6714 80.0566 39.2597 80.0599 39.9617C80.0632 40.6637 79.8262 41.2503 79.3489 41.7216C78.8716 42.1929 78.2856 42.4285 77.591 42.4285H71.7052V74.5621H77.591C78.2922 74.5621 78.8781 74.7994 79.3489 75.274C79.8196 75.7486 80.0566 76.3369 80.0599 77.0389C80.0632 77.7409 79.8262 78.3275 79.3489 78.7988C78.8716 79.2701 78.2856 79.5057 77.591 79.5057H3.42589ZM14.3482 74.5621H66.7675V42.4285H64.2986C63.5974 42.4285 63.0098 42.1912 62.5358 41.7167C62.0618 41.2421 61.8264 40.6538 61.8297 39.9518C61.833 39.2498 62.0684 38.6631 62.5358 38.1919C63.0032 37.7206 63.5908 37.4849 64.2986 37.4849H66.7675V5.35134H14.3482V37.4849H16.8171C17.5183 37.4849 18.1058 37.7222 18.5799 38.1968C19.0539 38.6714 19.2893 39.2597 19.286 39.9617C19.2827 40.6637 19.0473 41.2503 18.5799 41.7216C18.1124 42.1929 17.5248 42.4285 16.8171 42.4285H14.3482V74.5621ZM40.548 56.597C43.9715 56.597 46.8864 55.4105 49.2927 53.0376C51.6991 50.6712 52.9022 47.8039 52.9022 44.4357C52.9022 41.7595 52.1303 39.4607 50.5864 37.5393C49.0426 35.6179 45.6997 31.6712 40.5578 25.6993C35.4621 31.6416 32.1307 35.5882 30.5638 37.5393C28.9969 39.4904 28.2134 41.7974 28.2134 44.4604C28.2134 47.8154 29.4133 50.6762 31.8131 53.0425C34.2095 55.4122 37.1212 56.597 40.548 56.597Z" fill="white"/>
</svg>
