<svg width="477" height="44" viewBox="0 0 477 44" fill="none" xmlns="http://www.w3.org/2000/svg">
<path d="M50.2176 0L0 44.0002H30.848L80.2287 0H50.2176Z" fill="#FACB52" fill-opacity="0.5"/>
<path d="M107.012 0L56.7939 44.0002H87.6419L137.023 0H107.012Z" fill="#FACB52" fill-opacity="0.5"/>
<path d="M162.969 0L112.751 44.0002H143.599L192.98 0H162.969Z" fill="#FACB52" fill-opacity="0.5"/>
<path d="M222.218 0L172 44.0002H202.848L252.229 0H222.218Z" fill="#FACB52" fill-opacity="0.5"/>
<path d="M279.012 0L228.794 44.0002H259.642L309.023 0H279.012Z" fill="#FACB52" fill-opacity="0.5"/>
<path d="M334.969 0L284.751 44.0002H315.599L364.98 0H334.969Z" fill="#FACB52" fill-opacity="0.5"/>
<path d="M390.218 0L340 44.0002H370.848L420.229 0H390.218Z" fill="#FACB52" fill-opacity="0.5"/>
<path d="M446.175 0L395.957 44.0002H426.805L476.186 0H446.175Z" fill="#FACB52" fill-opacity="0.5"/>
</svg>
