<svg width="330" height="75" viewBox="0 0 330 75" fill="none" xmlns="http://www.w3.org/2000/svg">
<mask id="mask0_626_6" style="mask-type:alpha" maskUnits="userSpaceOnUse" x="0" y="0" width="330" height="75">
<rect width="330" height="74.1943" fill="#D9D9D9"/>
</mask>
<g mask="url(#mask0_626_6)">
<rect width="8.78027" height="74.698" transform="matrix(0.334636 0.942347 -0.847722 0.530441 56.72 -16.3662)" fill="#E42430" fill-opacity="0.2"/>
<rect width="8.78027" height="74.698" transform="matrix(0.334636 0.942347 -0.847722 0.530441 48.7749 -32.5215)" fill="#E42430" fill-opacity="0.2"/>
<rect width="8.78027" height="122.357" transform="matrix(0.334636 0.942347 -0.847722 0.530441 92.8877 -17.4814)" fill="#E42430" fill-opacity="0.2"/>
<rect width="8.78027" height="163.537" transform="matrix(0.334636 0.942347 -0.847722 0.530441 131.742 -18.7939)" fill="#E42430" fill-opacity="0.2"/>
<rect width="8.78027" height="185.871" transform="matrix(0.334636 0.942347 -0.847722 0.530441 167.519 -17.9443)" fill="#E42430" fill-opacity="0.2"/>
<rect width="8.78027" height="185.871" transform="matrix(0.334636 0.942347 -0.847722 0.530441 195.084 -13.2109)" fill="#E42430" fill-opacity="0.2"/>
<rect width="8.78027" height="185.871" transform="matrix(0.334636 0.942347 -0.847722 0.530441 240.257 -21.3408)" fill="#E42430" fill-opacity="0.2"/>
<rect width="8.78027" height="185.871" transform="matrix(0.334636 0.942347 -0.847722 0.530441 269.353 -16.2588)" fill="#E42430" fill-opacity="0.2"/>
<rect width="8.78027" height="185.871" transform="matrix(0.334636 0.942347 -0.847722 0.530441 303.806 -13.2109)" fill="#E42430" fill-opacity="0.2"/>
<rect width="8.78027" height="185.871" transform="matrix(0.334636 0.942347 -0.847722 0.530441 339.027 -13.2109)" fill="#E42430" fill-opacity="0.2"/>
<rect width="8.78027" height="185.871" transform="matrix(0.334636 0.942347 -0.847722 0.530441 369.654 -8.12695)" fill="#E42430" fill-opacity="0.2"/>
<rect width="8.78027" height="185.871" transform="matrix(0.334636 0.942347 -0.847722 0.530441 397.983 -5.08008)" fill="#E42430" fill-opacity="0.2"/>
<rect width="8.78027" height="185.871" transform="matrix(0.334636 0.942347 -0.847722 0.530441 407.17 10.166)" fill="#E42430" fill-opacity="0.2"/>
</g>
<mask id="mask1_626_6" style="mask-type:alpha" maskUnits="userSpaceOnUse" x="0" y="0" width="330" height="75">
<mask id="mask2_626_6" style="mask-type:alpha" maskUnits="userSpaceOnUse" x="0" y="0" width="330" height="75">
<rect width="330" height="74.1943" fill="#F26142"/>
</mask>
<g mask="url(#mask2_626_6)">
<path d="M56.7207 -16.3688L59.6589 -8.09478L-3.66417 31.5281L-6.60236 23.254L56.7207 -16.3688Z" fill="#F26142"/>
<path d="M48.7747 -32.5244L51.7129 -24.2503L-11.6101 15.3725L-14.5483 7.09848L48.7747 -32.5244Z" fill="#F26142"/>
<path d="M92.8878 -17.4845L95.8259 -9.21039L-7.89846 55.6926L-10.8367 47.4186L92.8878 -17.4845Z" fill="#F26142"/>
<path d="M131.742 -18.7956L134.681 -10.5215L-3.95357 76.2255L-6.89177 67.9514L131.742 -18.7956Z" fill="#F26142"/>
<path d="M167.52 -17.946L170.458 -9.67192L12.8914 88.9216L9.95317 80.6476L167.52 -17.946Z" fill="#F26142"/>
<path d="M195.083 -13.2136L198.022 -4.9395L40.4548 93.6541L37.5166 85.38L195.083 -13.2136Z" fill="#F26142"/>
<path d="M240.257 -21.3444L243.196 -13.0704L85.6288 85.5232L82.6906 77.2491L240.257 -21.3444Z" fill="#F26142"/>
<path d="M269.352 -16.2626L272.291 -7.98858L114.724 90.605L111.786 82.3309L269.352 -16.2626Z" fill="#F26142"/>
<path d="M303.807 -13.2136L306.745 -4.9395L149.179 93.6541L146.24 85.38L303.807 -13.2136Z" fill="#F26142"/>
<path d="M339.028 -13.2136L341.966 -4.9395L184.399 93.6541L181.461 85.38L339.028 -13.2136Z" fill="#F26142"/>
<path d="M369.654 -8.13176L372.592 0.142308L215.026 98.7359L212.087 90.4618L369.654 -8.13176Z" fill="#F26142"/>
<path d="M397.984 -5.08268L400.922 3.19139L243.355 101.785L240.417 93.5109L397.984 -5.08268Z" fill="#F26142"/>
<path d="M407.171 10.1627L410.11 18.4368L252.543 117.03L249.605 108.756L407.171 10.1627Z" fill="#F26142"/>
</g>
</mask>
<g mask="url(#mask1_626_6)">
<path fill-rule="evenodd" clip-rule="evenodd" d="M330 0H0V74.1943H330V0ZM326.172 5.08203H3.82812V69.1128H326.172V5.08203Z" fill="#E42430"/>
</g>
</svg>
