<svg width="621" height="128" viewBox="0 0 621 128" fill="none" xmlns="http://www.w3.org/2000/svg">
<g filter="url(#filter0_d_544_4)">
<rect x="20" y="20" width="581" height="88" fill="black"/>
</g>
<mask id="mask0_544_4" style="mask-type:alpha" maskUnits="userSpaceOnUse" x="20" y="20" width="581" height="88">
<rect x="20" y="20" width="581" height="88" fill="#D9D9D9"/>
</mask>
<g mask="url(#mask0_544_4)">
<rect width="11.0936" height="120.987" transform="matrix(0.466305 0.884624 -0.921476 0.388435 119.864 0.586914)" fill="#E22828" fill-opacity="0.5"/>
<rect width="11.0936" height="120.987" transform="matrix(0.466305 0.884624 -0.921476 0.388435 105.875 -18.5742)" fill="#E22828" fill-opacity="0.5"/>
<rect width="11.0936" height="198.18" transform="matrix(0.466305 0.884624 -0.921476 0.388435 183.541 -0.736328)" fill="#E22828" fill-opacity="0.5"/>
<rect width="11.0936" height="264.88" transform="matrix(0.466305 0.884624 -0.921476 0.388435 251.949 -2.29102)" fill="#E22828" fill-opacity="0.5"/>
<rect width="11.0936" height="301.053" transform="matrix(0.466305 0.884624 -0.921476 0.388435 314.939 -1.2832)" fill="#E22828" fill-opacity="0.5"/>
<rect width="11.0936" height="301.053" transform="matrix(0.466305 0.884624 -0.921476 0.388435 363.466 4.33105)" fill="#E22828" fill-opacity="0.5"/>
<rect width="11.0936" height="301.053" transform="matrix(0.466305 0.884624 -0.921476 0.388435 443 -5.31348)" fill="#E22828" fill-opacity="0.5"/>
<rect width="11.0936" height="301.053" transform="matrix(0.466305 0.884624 -0.921476 0.388435 494.225 0.712891)" fill="#E22828" fill-opacity="0.5"/>
<rect width="11.0936" height="301.053" transform="matrix(0.466305 0.884624 -0.921476 0.388435 554.886 4.33105)" fill="#E22828" fill-opacity="0.5"/>
<rect width="11.0936" height="301.053" transform="matrix(0.466305 0.884624 -0.921476 0.388435 616.896 4.33105)" fill="#E22828" fill-opacity="0.5"/>
<rect width="11.0936" height="301.053" transform="matrix(0.466305 0.884624 -0.921476 0.388435 670.817 10.3564)" fill="#E22828" fill-opacity="0.5"/>
<rect width="11.0936" height="301.053" transform="matrix(0.466305 0.884624 -0.921476 0.388435 720.694 13.9736)" fill="#E22828" fill-opacity="0.5"/>
<rect width="11.0936" height="301.053" transform="matrix(0.466305 0.884624 -0.921476 0.388435 736.87 32.0557)" fill="#E22828" fill-opacity="0.5"/>
</g>
<mask id="mask1_544_4" style="mask-type:alpha" maskUnits="userSpaceOnUse" x="20" y="20" width="581" height="88">
<mask id="mask2_544_4" style="mask-type:alpha" maskUnits="userSpaceOnUse" x="20" y="20" width="581" height="88">
<rect x="20" y="20" width="581" height="88" fill="#F26142"/>
</mask>
<g mask="url(#mask2_544_4)">
<path d="M119.864 0.585537L125.037 10.3992L13.5504 57.3949L8.37743 47.5812L119.864 0.585537Z" fill="#F26142"/>
<path d="M105.875 -18.5762L111.048 -8.76251L-0.4393 38.2332L-5.6123 28.4195L105.875 -18.5762Z" fill="#F26142"/>
<path d="M183.54 -0.737665L188.713 9.07599L6.09552 86.0558L0.922511 76.2422L183.54 -0.737665Z" fill="#F26142"/>
<path d="M251.948 -2.29278L257.121 7.52088L13.0409 110.409L7.8679 100.596L251.948 -2.29278Z" fill="#F26142"/>
<path d="M314.938 -1.28508L320.111 8.52858L42.6982 125.468L37.5252 115.654L314.938 -1.28508Z" fill="#F26142"/>
<path d="M363.467 4.32794L368.64 14.1416L91.2265 131.081L86.0535 121.267L363.467 4.32794Z" fill="#F26142"/>
<path d="M443 -5.3159L448.173 4.49776L170.76 121.437L165.587 111.623L443 -5.3159Z" fill="#F26142"/>
<path d="M494.225 0.7115L499.398 10.5252L221.985 127.464L216.812 117.651L494.225 0.7115Z" fill="#F26142"/>
<path d="M554.886 4.32794L560.059 14.1416L282.646 131.081L277.473 121.267L554.886 4.32794Z" fill="#F26142"/>
<path d="M616.896 4.32794L622.069 14.1416L344.656 131.081L339.483 121.267L616.896 4.32794Z" fill="#F26142"/>
<path d="M670.817 10.3553L675.99 20.169L398.577 137.108L393.404 127.295L670.817 10.3553Z" fill="#F26142"/>
<path d="M720.694 13.9718L725.867 23.7854L448.454 140.725L443.281 130.911L720.694 13.9718Z" fill="#F26142"/>
<path d="M736.87 32.054L742.043 41.8676L464.63 158.807L459.457 148.993L736.87 32.054Z" fill="#F26142"/>
</g>
</mask>
<g mask="url(#mask1_544_4)">
<path fill-rule="evenodd" clip-rule="evenodd" d="M601 18.9883H20V108H601V18.9883ZM594.26 26.0275H26.7405V101.973H594.26V26.0275Z" fill="#E22828"/>
</g>
<path d="M65.5469 59.25C65.0781 58.9896 64.4115 58.8594 63.5469 58.8594H60.0625C59.1771 58.8594 58.5 58.8646 58.0312 58.875C57.5729 58.8854 57.1562 58.8958 56.7812 58.9062C56.2083 58.9062 55.7292 59.026 55.3438 59.2656C54.9688 59.4948 54.7031 59.8281 54.5469 60.2656C54.4635 60.4948 54.401 60.8281 54.3594 61.2656C54.3177 61.6927 54.2969 62.2708 54.2969 63C54.2969 64.8958 54.3594 66.1042 54.4844 66.625C54.7865 67.7812 55.7344 68.3594 57.3281 68.3594L61.1094 68.375L64.2656 68.3906C65.6302 68.3906 66.3854 67.7448 66.5312 66.4531L66.5625 65.7656H72.2812V66.6875C72.2812 68.2188 72.1146 69.4219 71.7812 70.2969C71.6562 70.6927 71.4375 71.0417 71.125 71.3438C70.2604 72.2396 68.6823 72.7969 66.3906 73.0156C65.9219 73.0573 65.4115 73.099 64.8594 73.1406C64.3073 73.1823 63.6562 73.2031 62.9062 73.2031L60.7031 73.2188C59.8594 73.2188 59.1406 73.2135 58.5469 73.2031C57.9531 73.1927 57.3854 73.1823 56.8438 73.1719C56.4896 73.1719 56.099 73.151 55.6719 73.1094C55.2552 73.0781 54.8073 73.0312 54.3281 72.9688C53.5156 72.875 52.7656 72.7031 52.0781 72.4531C51.2552 72.2031 50.6094 71.7812 50.1406 71.1875C49.4323 70.375 48.9948 69.3906 48.8281 68.2344C48.6615 67.0781 48.5781 65.6771 48.5781 64.0312C48.5781 62.3229 48.6354 60.8646 48.75 59.6562C48.75 59.3125 48.7865 58.9792 48.8594 58.6562C48.9427 58.3229 49.0573 57.9792 49.2031 57.625C49.8594 55.8646 51.2812 54.7969 53.4688 54.4219C55.1562 54.151 57.474 54.0156 60.4219 54.0156H63.0312C66.2292 54.0156 68.4792 54.3333 69.7812 54.9688C70.7188 55.4271 71.3854 56.3177 71.7812 57.6406C71.9479 58.224 72.0312 59.3594 72.0312 61.0469H66.3125C66.3125 60.1302 66.0573 59.5312 65.5469 59.25ZM83.9375 73.1719C83.5104 73.1719 83.0677 73.1615 82.6094 73.1406C82.1615 73.1302 81.7969 73.1198 81.5156 73.1094C80.6406 73.1094 79.8646 72.9688 79.1875 72.6875C78.5104 72.4062 77.9271 72 77.4375 71.4688C77.0208 71.0521 76.724 70.6198 76.5469 70.1719C76.2969 69.599 76.1042 68.8073 75.9688 67.7969C75.8333 66.776 75.7656 65.5365 75.7656 64.0781L75.7969 61.6406C75.7969 60.8177 75.8438 60.0781 75.9375 59.4219C76.0417 58.7552 76.1927 58.1146 76.3906 57.5C76.8281 56.125 77.7865 55.1667 79.2656 54.625C79.8073 54.4271 80.7708 54.276 82.1562 54.1719C83.5417 54.0677 85.3646 54.0156 87.625 54.0156L91.7344 54.0312C94.6094 54.0312 96.5365 54.2031 97.5156 54.5469C99.4948 55.2344 100.63 56.6927 100.922 58.9219C100.953 59.224 100.984 59.6302 101.016 60.1406C101.047 60.651 101.062 61.1562 101.062 61.6562L101.109 64.75C101.109 66.0521 101.062 67.1042 100.969 67.9062C100.875 68.6979 100.677 69.4323 100.375 70.1094C99.9375 71.1198 99.2708 71.8906 98.375 72.4219C97.4896 72.9427 96.3802 73.2031 95.0469 73.2031L92.1406 73.2188L83.9375 73.1719ZM91.2344 68.375C92.1406 68.375 92.8229 68.3438 93.2812 68.2812C94.0417 68.1771 94.5833 67.8073 94.9062 67.1719C95.2292 66.5365 95.3906 65.1771 95.3906 63.0938C95.3906 62.0312 95.3385 61.2656 95.2344 60.7969C95.0677 59.9219 94.599 59.375 93.8281 59.1562C93.5781 59.0938 93.2917 59.0365 92.9688 58.9844C92.6458 58.9323 92.3281 58.9062 92.0156 58.9062L88.3594 58.8594H86.2969C85.974 58.8594 85.5365 58.875 84.9844 58.9062C84.4427 58.9271 84.1094 58.9375 83.9844 58.9375C83.5156 58.9375 83.1198 59.0208 82.7969 59.1875C82.474 59.3438 82.2031 59.5833 81.9844 59.9062C81.651 60.4062 81.4844 61.9167 81.4844 64.4375C81.4844 66.2083 81.776 67.3229 82.3594 67.7812C82.776 68.1354 83.9375 68.3125 85.8438 68.3125L91.2344 68.375ZM104.281 61.2031L104.297 58.6875C104.297 57.6875 104.526 56.8542 104.984 56.1875C105.443 55.5104 106.115 55 107 54.6562C107.531 54.4688 108.245 54.3125 109.141 54.1875C110.036 54.0521 111.047 53.9844 112.172 53.9844L114.828 53.9375L117.891 53.9844C118.484 53.9844 119.021 54 119.5 54.0312C119.979 54.0521 120.516 54.0885 121.109 54.1406C122.62 54.276 123.802 54.6406 124.656 55.2344C125.104 55.5365 125.453 55.9688 125.703 56.5312C125.953 57.0833 126.078 57.7604 126.078 58.5625L126.141 60.3906C126.141 61.1615 126.094 61.8594 126 62.4844C125.875 63.3385 125.505 64.0521 124.891 64.625C124.286 65.1875 123.599 65.5625 122.828 65.75C122.182 65.9062 121.271 66.0417 120.094 66.1562C118.917 66.2604 117.818 66.3125 116.797 66.3125L112.438 66.6094C112.094 66.6094 111.76 66.6354 111.438 66.6875C111.125 66.7292 110.828 66.7865 110.547 66.8594C110.234 66.9219 109.99 67.0625 109.812 67.2812C109.635 67.5 109.547 67.8021 109.547 68.1875L109.484 68.9062H126.266V73H104.109V69.6406C104.109 69.4219 104.115 69.0781 104.125 68.6094C104.135 68.1406 104.141 67.7812 104.141 67.5312C104.141 66.8854 104.188 66.3385 104.281 65.8906C104.385 65.4323 104.536 65.0469 104.734 64.7344C105.234 63.9219 105.99 63.3542 107 63.0312C107.552 62.8542 108.229 62.7083 109.031 62.5938C110.167 62.4271 111.406 62.3438 112.75 62.3438L117.5 62.0469C118 62.0469 118.432 62.0208 118.797 61.9688C119.172 61.9062 119.51 61.8281 119.812 61.7344C120.448 61.5469 120.766 61.026 120.766 60.1719C120.766 59.0677 120.38 58.4271 119.609 58.25C119.286 58.1771 118.922 58.125 118.516 58.0938C118.109 58.0521 117.661 58.0312 117.172 58.0312H115.922L113.406 58.0781C112.823 58.0781 112.349 58.099 111.984 58.1406C111.63 58.1823 111.318 58.2448 111.047 58.3281C110.307 58.5469 109.885 59.1458 109.781 60.125L109.656 61.2031H104.281ZM157.578 54.2344L159.953 54.2656C160.432 54.2656 160.891 54.2969 161.328 54.3594C161.766 54.4115 162.224 54.4948 162.703 54.6094C164.432 55.0156 165.516 56.099 165.953 57.8594C166.214 58.8906 166.344 59.9948 166.344 61.1719C166.344 64.5573 165.583 66.7135 164.062 67.6406C163.469 68.0156 162.719 68.2604 161.812 68.375C161.51 68.4062 161.208 68.4323 160.906 68.4531C160.615 68.474 160.312 68.4844 160 68.4844H149.688V73H143.969V54.2344H157.578ZM149.688 59.0781V63.6406H156.891L158.672 63.6094C159.474 63.6094 160 63.3906 160.25 62.9531C160.5 62.5156 160.625 61.9375 160.625 61.2188C160.625 60.5521 160.484 60.0417 160.203 59.6875C159.932 59.3229 159.526 59.1406 158.984 59.1406L156.547 59.0781H149.688ZM177.031 73.1719C176.604 73.1719 176.161 73.1615 175.703 73.1406C175.255 73.1302 174.891 73.1198 174.609 73.1094C173.734 73.1094 172.958 72.9688 172.281 72.6875C171.604 72.4062 171.021 72 170.531 71.4688C170.115 71.0521 169.818 70.6198 169.641 70.1719C169.391 69.599 169.198 68.8073 169.062 67.7969C168.927 66.776 168.859 65.5365 168.859 64.0781L168.891 61.6406C168.891 60.8177 168.938 60.0781 169.031 59.4219C169.135 58.7552 169.286 58.1146 169.484 57.5C169.922 56.125 170.88 55.1667 172.359 54.625C172.901 54.4271 173.865 54.276 175.25 54.1719C176.635 54.0677 178.458 54.0156 180.719 54.0156L184.828 54.0312C187.703 54.0312 189.63 54.2031 190.609 54.5469C192.589 55.2344 193.724 56.6927 194.016 58.9219C194.047 59.224 194.078 59.6302 194.109 60.1406C194.141 60.651 194.156 61.1562 194.156 61.6562L194.203 64.75C194.203 66.0521 194.156 67.1042 194.062 67.9062C193.969 68.6979 193.771 69.4323 193.469 70.1094C193.031 71.1198 192.365 71.8906 191.469 72.4219C190.583 72.9427 189.474 73.2031 188.141 73.2031L185.234 73.2188L177.031 73.1719ZM184.328 68.375C185.234 68.375 185.917 68.3438 186.375 68.2812C187.135 68.1771 187.677 67.8073 188 67.1719C188.323 66.5365 188.484 65.1771 188.484 63.0938C188.484 62.0312 188.432 61.2656 188.328 60.7969C188.161 59.9219 187.693 59.375 186.922 59.1562C186.672 59.0938 186.385 59.0365 186.062 58.9844C185.74 58.9323 185.422 58.9062 185.109 58.9062L181.453 58.8594H179.391C179.068 58.8594 178.63 58.875 178.078 58.9062C177.536 58.9271 177.203 58.9375 177.078 58.9375C176.609 58.9375 176.214 59.0208 175.891 59.1875C175.568 59.3438 175.297 59.5833 175.078 59.9062C174.745 60.4062 174.578 61.9167 174.578 64.4375C174.578 66.2083 174.87 67.3229 175.453 67.7812C175.87 68.1354 177.031 68.3125 178.938 68.3125L184.328 68.375ZM203.688 54.2344V68.1562H216.266V73H197.969V54.2344H203.688ZM225.031 54.2344V68.1562H237.609V73H219.312V54.2344H225.031ZM240.719 54.2344H246.438V64.875L246.453 65.9219C246.453 66.651 246.682 67.224 247.141 67.6406C247.599 68.0469 248.271 68.25 249.156 68.25C249.521 68.25 250.073 68.2708 250.812 68.3125C251.552 68.3542 252.104 68.375 252.469 68.375C254.219 68.375 255.479 68.3281 256.25 68.2344C257.021 68.1406 257.615 67.9062 258.031 67.5312C258.448 67.1458 258.656 66.6094 258.656 65.9219L258.703 64.4844V54.2344H264.422V66.5312L264.344 67.4062C264.344 68.2083 264.224 68.9219 263.984 69.5469C263.755 70.1719 263.438 70.7188 263.031 71.1875C262.312 72 261.146 72.5781 259.531 72.9219L258.688 73.0781C257.812 73.1719 255.531 73.2188 251.844 73.2188L247.812 73.1562C244.542 73.1562 242.51 72.2135 241.719 70.3281C241.417 69.6615 241.182 68.9844 241.016 68.2969C240.849 67.599 240.766 66.8646 240.766 66.0938L240.719 64.5781V54.2344ZM289.734 54.2344V59.0781H281.516V73H275.797V59.0781H267.578V54.2344H289.734ZM293 54.2344H298.719V73H293V54.2344ZM311.062 73.1719C310.635 73.1719 310.193 73.1615 309.734 73.1406C309.286 73.1302 308.922 73.1198 308.641 73.1094C307.766 73.1094 306.99 72.9688 306.312 72.6875C305.635 72.4062 305.052 72 304.562 71.4688C304.146 71.0521 303.849 70.6198 303.672 70.1719C303.422 69.599 303.229 68.8073 303.094 67.7969C302.958 66.776 302.891 65.5365 302.891 64.0781L302.922 61.6406C302.922 60.8177 302.969 60.0781 303.062 59.4219C303.167 58.7552 303.318 58.1146 303.516 57.5C303.953 56.125 304.911 55.1667 306.391 54.625C306.932 54.4271 307.896 54.276 309.281 54.1719C310.667 54.0677 312.49 54.0156 314.75 54.0156L318.859 54.0312C321.734 54.0312 323.661 54.2031 324.641 54.5469C326.62 55.2344 327.755 56.6927 328.047 58.9219C328.078 59.224 328.109 59.6302 328.141 60.1406C328.172 60.651 328.188 61.1562 328.188 61.6562L328.234 64.75C328.234 66.0521 328.188 67.1042 328.094 67.9062C328 68.6979 327.802 69.4323 327.5 70.1094C327.062 71.1198 326.396 71.8906 325.5 72.4219C324.615 72.9427 323.505 73.2031 322.172 73.2031L319.266 73.2188L311.062 73.1719ZM318.359 68.375C319.266 68.375 319.948 68.3438 320.406 68.2812C321.167 68.1771 321.708 67.8073 322.031 67.1719C322.354 66.5365 322.516 65.1771 322.516 63.0938C322.516 62.0312 322.464 61.2656 322.359 60.7969C322.193 59.9219 321.724 59.375 320.953 59.1562C320.703 59.0938 320.417 59.0365 320.094 58.9844C319.771 58.9323 319.453 58.9062 319.141 58.9062L315.484 58.8594H313.422C313.099 58.8594 312.661 58.875 312.109 58.9062C311.568 58.9271 311.234 58.9375 311.109 58.9375C310.641 58.9375 310.245 59.0208 309.922 59.1875C309.599 59.3438 309.328 59.5833 309.109 59.9062C308.776 60.4062 308.609 61.9167 308.609 64.4375C308.609 66.2083 308.901 67.3229 309.484 67.7812C309.901 68.1354 311.062 68.3125 312.969 68.3125L318.359 68.375ZM340.734 54.2344L351.547 68.2344V54.2344H357.266V73H348.172L337.359 58.9688V73H331.641V54.2344H340.734ZM376.031 54.2344H381.75V73H376.031V54.2344ZM395.297 54.2344L406.109 68.2344V54.2344H411.828V73H402.734L391.922 58.9688V73H386.203V54.2344H395.297ZM432.641 59.25C432.172 58.9896 431.505 58.8594 430.641 58.8594H427.156C426.271 58.8594 425.594 58.8646 425.125 58.875C424.667 58.8854 424.25 58.8958 423.875 58.9062C423.302 58.9062 422.823 59.026 422.438 59.2656C422.062 59.4948 421.797 59.8281 421.641 60.2656C421.557 60.4948 421.495 60.8281 421.453 61.2656C421.411 61.6927 421.391 62.2708 421.391 63C421.391 64.8958 421.453 66.1042 421.578 66.625C421.88 67.7812 422.828 68.3594 424.422 68.3594L428.203 68.375L431.359 68.3906C432.724 68.3906 433.479 67.7448 433.625 66.4531L433.656 65.7656H439.375V66.6875C439.375 68.2188 439.208 69.4219 438.875 70.2969C438.75 70.6927 438.531 71.0417 438.219 71.3438C437.354 72.2396 435.776 72.7969 433.484 73.0156C433.016 73.0573 432.505 73.099 431.953 73.1406C431.401 73.1823 430.75 73.2031 430 73.2031L427.797 73.2188C426.953 73.2188 426.234 73.2135 425.641 73.2031C425.047 73.1927 424.479 73.1823 423.938 73.1719C423.583 73.1719 423.193 73.151 422.766 73.1094C422.349 73.0781 421.901 73.0312 421.422 72.9688C420.609 72.875 419.859 72.7031 419.172 72.4531C418.349 72.2031 417.703 71.7812 417.234 71.1875C416.526 70.375 416.089 69.3906 415.922 68.2344C415.755 67.0781 415.672 65.6771 415.672 64.0312C415.672 62.3229 415.729 60.8646 415.844 59.6562C415.844 59.3125 415.88 58.9792 415.953 58.6562C416.036 58.3229 416.151 57.9792 416.297 57.625C416.953 55.8646 418.375 54.7969 420.562 54.4219C422.25 54.151 424.568 54.0156 427.516 54.0156H430.125C433.323 54.0156 435.573 54.3333 436.875 54.9688C437.812 55.4271 438.479 56.3177 438.875 57.6406C439.042 58.224 439.125 59.3594 439.125 61.0469H433.406C433.406 60.1302 433.151 59.5312 432.641 59.25ZM451.031 73.1719C450.604 73.1719 450.161 73.1615 449.703 73.1406C449.255 73.1302 448.891 73.1198 448.609 73.1094C447.734 73.1094 446.958 72.9688 446.281 72.6875C445.604 72.4062 445.021 72 444.531 71.4688C444.115 71.0521 443.818 70.6198 443.641 70.1719C443.391 69.599 443.198 68.8073 443.062 67.7969C442.927 66.776 442.859 65.5365 442.859 64.0781L442.891 61.6406C442.891 60.8177 442.938 60.0781 443.031 59.4219C443.135 58.7552 443.286 58.1146 443.484 57.5C443.922 56.125 444.88 55.1667 446.359 54.625C446.901 54.4271 447.865 54.276 449.25 54.1719C450.635 54.0677 452.458 54.0156 454.719 54.0156L458.828 54.0312C461.703 54.0312 463.63 54.2031 464.609 54.5469C466.589 55.2344 467.724 56.6927 468.016 58.9219C468.047 59.224 468.078 59.6302 468.109 60.1406C468.141 60.651 468.156 61.1562 468.156 61.6562L468.203 64.75C468.203 66.0521 468.156 67.1042 468.062 67.9062C467.969 68.6979 467.771 69.4323 467.469 70.1094C467.031 71.1198 466.365 71.8906 465.469 72.4219C464.583 72.9427 463.474 73.2031 462.141 73.2031L459.234 73.2188L451.031 73.1719ZM458.328 68.375C459.234 68.375 459.917 68.3438 460.375 68.2812C461.135 68.1771 461.677 67.8073 462 67.1719C462.323 66.5365 462.484 65.1771 462.484 63.0938C462.484 62.0312 462.432 61.2656 462.328 60.7969C462.161 59.9219 461.693 59.375 460.922 59.1562C460.672 59.0938 460.385 59.0365 460.062 58.9844C459.74 58.9323 459.422 58.9062 459.109 58.9062L455.453 58.8594H453.391C453.068 58.8594 452.63 58.875 452.078 58.9062C451.536 58.9271 451.203 58.9375 451.078 58.9375C450.609 58.9375 450.214 59.0208 449.891 59.1875C449.568 59.3438 449.297 59.5833 449.078 59.9062C448.745 60.4062 448.578 61.9167 448.578 64.4375C448.578 66.2083 448.87 67.3229 449.453 67.7812C449.87 68.1354 451.031 68.3125 452.938 68.3125L458.328 68.375ZM471.781 54.2344H480.875L487.422 66.2969L494.109 54.2344H503.203V73H497.484V59.3125L489.688 73H485.172L477.5 59.25V73H471.781V54.2344ZM507.688 54.2344H513.406V73H507.688V54.2344ZM526.953 54.2344L537.766 68.2344V54.2344H543.484V73H534.391L523.578 58.9688V73H517.859V54.2344H526.953ZM565.547 60.75C565.547 60.1667 565.391 59.7135 565.078 59.3906C564.766 59.0677 564.328 58.9062 563.766 58.9062C563.214 58.9062 562.594 58.901 561.906 58.8906C561.219 58.8802 560.552 58.8698 559.906 58.8594L556.344 58.875C555.177 58.875 554.323 59.0573 553.781 59.4219C553.479 59.6302 553.24 59.9323 553.062 60.3281C552.896 60.7135 552.812 61.1927 552.812 61.7656L552.75 63.7812C552.75 64.6979 552.792 65.4688 552.875 66.0938C553.01 67.4271 553.635 68.1562 554.75 68.2812C555.219 68.3438 555.938 68.375 556.906 68.375H559.188L563.078 68.3594C564.839 68.3594 565.719 67.7969 565.719 66.6719V66.0625H558.594V62.2344H571.438V62.9062C571.438 66.1771 571.375 68.2292 571.25 69.0625C571.135 69.8854 570.724 70.6875 570.016 71.4688C569.391 72.1562 568.568 72.5938 567.547 72.7812C567.214 72.8438 566.859 72.9062 566.484 72.9688C566.109 73.0208 565.76 73.0469 565.438 73.0469C565.135 73.0469 563.885 73.0833 561.688 73.1562C560.427 73.1979 559.453 73.2188 558.766 73.2188L554.781 73.1875C553.125 73.1875 551.875 73.0573 551.031 72.7969C549.698 72.4115 548.719 71.6667 548.094 70.5625C547.792 70.0521 547.552 69.4323 547.375 68.7031C547.198 67.9635 547.109 67.1458 547.109 66.25C547.109 65.5521 547.104 64.9896 547.094 64.5625C547.052 62.8438 547.031 61.9062 547.031 61.75L547.047 60.3594C547.047 59.9948 547.078 59.6302 547.141 59.2656C547.203 58.901 547.307 58.526 547.453 58.1406C548.141 56.026 549.75 54.7552 552.281 54.3281C552.583 54.276 552.938 54.224 553.344 54.1719C553.76 54.1198 554.083 54.0938 554.312 54.0938L559.031 54.0156C559.99 54.0156 560.979 54.026 562 54.0469C563.021 54.0573 564.104 54.0677 565.25 54.0781C567.219 54.0781 568.714 54.5365 569.734 55.4531C570.755 56.3698 571.266 57.7135 571.266 59.4844V60.75H565.547Z" fill="#E22828"/>
<defs>
<filter id="filter0_d_544_4" x="0" y="0" width="621" height="128" filterUnits="userSpaceOnUse" color-interpolation-filters="sRGB">
<feFlood flood-opacity="0" result="BackgroundImageFix"/>
<feColorMatrix in="SourceAlpha" type="matrix" values="0 0 0 0 0 0 0 0 0 0 0 0 0 0 0 0 0 0 127 0" result="hardAlpha"/>
<feMorphology radius="5" operator="dilate" in="SourceAlpha" result="effect1_dropShadow_544_4"/>
<feOffset/>
<feGaussianBlur stdDeviation="7.5"/>
<feComposite in2="hardAlpha" operator="out"/>
<feColorMatrix type="matrix" values="0 0 0 0 0.886275 0 0 0 0 0.156863 0 0 0 0 0.156863 0 0 0 0.35 0"/>
<feBlend mode="normal" in2="BackgroundImageFix" result="effect1_dropShadow_544_4"/>
<feBlend mode="normal" in="SourceGraphic" in2="effect1_dropShadow_544_4" result="shape"/>
</filter>
</defs>
</svg>
