<svg width="836" height="836" viewBox="0 0 836 836" fill="none" xmlns="http://www.w3.org/2000/svg">
<circle cx="418" cy="418" r="418" fill="url(#paint0_radial_515_19)"/>
<circle cx="417.5" cy="417.5" r="67.5" fill="#F0DE3B" stroke="#A19423" stroke-width="10"/>
<path d="M422.506 421.575C422.977 420.76 423.228 419.823 423.229 418.872C423.227 415.893 420.8 413.466 417.815 413.463C415.888 413.463 414.093 414.503 413.128 416.174C412.655 416.993 412.406 417.926 412.406 418.876C412.409 421.859 414.832 424.287 417.819 424.286C419.745 424.285 421.542 423.246 422.506 421.575Z" fill="#A19423"/>
<path d="M429.366 418.877C428.333 418.875 427.467 419.639 427.333 420.661C427.333 420.661 427.455 420.562 427.239 421.384C427.022 422.204 426.694 423.002 426.262 423.752C425.828 424.504 425.302 425.182 424.699 425.783C424.096 426.38 424.122 426.223 424.122 426.223C423.304 426.851 423.073 427.987 423.593 428.876L434.979 448.6C435.263 449.093 435.738 449.446 436.293 449.574C436.848 449.7 437.429 449.592 437.903 449.271C437.903 449.271 438.962 448.698 440.297 447.651C443.976 444.774 447.091 441.199 449.446 437.138C451.787 433.065 453.323 428.584 453.978 423.955C454.217 422.276 454.184 421.072 454.184 421.072C454.222 420.505 454.028 419.944 453.64 419.528C453.252 419.112 452.708 418.877 452.141 418.875L429.366 418.877Z" fill="#A19423"/>
<path d="M431.497 385.018C427.164 383.27 422.511 382.36 417.814 382.353C413.119 382.356 408.472 383.27 404.134 385.016C402.561 385.653 401.533 386.283 401.533 386.283C401.023 386.527 400.637 386.978 400.469 387.527C400.301 388.071 400.369 388.659 400.653 389.153L412.041 408.874C412.555 409.765 413.653 410.135 414.604 409.741C414.604 409.741 414.454 409.685 415.276 409.46C416.094 409.242 416.95 409.124 417.815 409.121C418.684 409.125 419.535 409.24 420.354 409.461C421.176 409.685 421.026 409.739 421.026 409.739C421.979 410.136 423.075 409.769 423.593 408.873L434.979 389.151C435.263 388.659 435.33 388.069 435.162 387.524C434.995 386.979 434.608 386.53 434.098 386.281C434.098 386.281 433.071 385.65 431.497 385.018Z" fill="#A19423"/>
<path d="M411.51 426.222C411.51 426.222 411.538 426.378 410.933 425.778C410.332 425.18 409.805 424.504 409.369 423.75C408.937 422.998 408.611 422.202 408.393 421.382C408.175 420.561 408.299 420.661 408.299 420.661C408.167 419.638 407.297 418.872 406.268 418.873L383.493 418.875C382.924 418.874 382.38 419.111 381.993 419.529C381.604 419.945 381.406 420.505 381.448 421.072C381.448 421.072 381.416 422.277 381.653 423.954C382.31 428.584 383.842 433.065 386.185 437.137C388.541 441.2 391.656 444.772 395.334 447.654C396.67 448.697 397.731 449.271 397.731 449.271C398.201 449.589 398.781 449.703 399.339 449.572C399.894 449.446 400.371 449.094 400.656 448.599L412.043 428.877C412.559 427.983 412.33 426.849 411.51 426.222Z" fill="#A19423"/>
<defs>
<radialGradient id="paint0_radial_515_19" cx="0" cy="0" r="1" gradientUnits="userSpaceOnUse" gradientTransform="translate(418 418) rotate(90) scale(3971)">
<stop stop-color="#4BD540" stop-opacity="0.27"/>
<stop offset="0.104655" stop-color="white" stop-opacity="0"/>
</radialGradient>
</defs>
</svg>
