<svg width="656" height="138" viewBox="0 0 656 138" fill="none" xmlns="http://www.w3.org/2000/svg">
<g filter="url(#filter0_d_546_83)">
<rect x="25" y="25" width="606" height="88" fill="black"/>
</g>
<mask id="mask0_546_83" style="mask-type:alpha" maskUnits="userSpaceOnUse" x="25" y="25" width="606" height="88">
<rect x="25" y="25" width="606" height="88" fill="#D9D9D9"/>
</mask>
<g mask="url(#mask0_546_83)">
<rect width="11.1991" height="125.422" transform="matrix(0.481787 0.876288 -0.927146 0.374701 129.161 5.58691)" fill="#2CE228" fill-opacity="0.5"/>
<rect width="11.1991" height="125.422" transform="matrix(0.481787 0.876288 -0.927146 0.374701 114.57 -13.5742)" fill="#2CE228" fill-opacity="0.5"/>
<rect width="11.1991" height="205.443" transform="matrix(0.481787 0.876288 -0.927146 0.374701 195.578 4.26367)" fill="#2CE228" fill-opacity="0.5"/>
<rect width="11.1991" height="274.588" transform="matrix(0.481787 0.876288 -0.927146 0.374701 266.93 2.70898)" fill="#2CE228" fill-opacity="0.5"/>
<rect width="11.1991" height="312.087" transform="matrix(0.481787 0.876288 -0.927146 0.374701 332.63 3.7168)" fill="#2CE228" fill-opacity="0.5"/>
<rect width="11.1991" height="312.087" transform="matrix(0.481787 0.876288 -0.927146 0.374701 383.245 9.33105)" fill="#2CE228" fill-opacity="0.5"/>
<rect width="11.1991" height="312.087" transform="matrix(0.481787 0.876288 -0.927146 0.374701 466.202 -0.313477)" fill="#2CE228" fill-opacity="0.5"/>
<rect width="11.1991" height="312.087" transform="matrix(0.481787 0.876288 -0.927146 0.374701 519.631 5.71289)" fill="#2CE228" fill-opacity="0.5"/>
<rect width="11.1991" height="312.087" transform="matrix(0.481787 0.876288 -0.927146 0.374701 582.902 9.33105)" fill="#2CE228" fill-opacity="0.5"/>
<rect width="11.1991" height="312.087" transform="matrix(0.481787 0.876288 -0.927146 0.374701 647.58 9.33105)" fill="#2CE228" fill-opacity="0.5"/>
<rect width="11.1991" height="312.087" transform="matrix(0.481787 0.876288 -0.927146 0.374701 703.821 15.3564)" fill="#2CE228" fill-opacity="0.5"/>
<rect width="11.1991" height="312.087" transform="matrix(0.481787 0.876288 -0.927146 0.374701 755.845 18.9736)" fill="#2CE228" fill-opacity="0.5"/>
<rect width="11.1991" height="312.087" transform="matrix(0.481787 0.876288 -0.927146 0.374701 772.717 37.0557)" fill="#2CE228" fill-opacity="0.5"/>
</g>
<mask id="mask1_546_83" style="mask-type:alpha" maskUnits="userSpaceOnUse" x="25" y="25" width="606" height="88">
<mask id="mask2_546_83" style="mask-type:alpha" maskUnits="userSpaceOnUse" x="25" y="25" width="606" height="88">
<rect x="25" y="25" width="606" height="88" fill="#F26142"/>
</mask>
<g mask="url(#mask2_546_83)">
<path d="M129.162 5.58554L134.557 15.3992L18.2729 62.3949L12.8774 52.5812L129.162 5.58554Z" fill="#F26142"/>
<path d="M114.57 -13.5762L119.965 -3.76251L3.68124 43.2332L-1.71436 33.4195L114.57 -13.5762Z" fill="#F26142"/>
<path d="M195.577 4.26233L200.973 14.076L10.4972 91.0558L5.10165 81.2422L195.577 4.26233Z" fill="#F26142"/>
<path d="M266.929 2.70722L272.324 12.5209L17.7415 115.409L12.3459 105.596L266.929 2.70722Z" fill="#F26142"/>
<path d="M332.629 3.71492L338.025 13.5286L48.6749 130.468L43.2793 120.654L332.629 3.71492Z" fill="#F26142"/>
<path d="M383.246 9.32794L388.641 19.1416L99.2914 136.081L93.8958 126.267L383.246 9.32794Z" fill="#F26142"/>
<path d="M466.202 -0.315897L471.597 9.49776L182.247 126.437L176.852 116.623L466.202 -0.315897Z" fill="#F26142"/>
<path d="M519.631 5.7115L525.026 15.5252L235.677 132.464L230.281 122.651L519.631 5.7115Z" fill="#F26142"/>
<path d="M582.902 9.32794L588.298 19.1416L298.948 136.081L293.552 126.267L582.902 9.32794Z" fill="#F26142"/>
<path d="M647.58 9.32794L652.975 19.1416L363.626 136.081L358.23 126.267L647.58 9.32794Z" fill="#F26142"/>
<path d="M703.821 15.3553L709.217 25.169L419.867 142.108L414.471 132.295L703.821 15.3553Z" fill="#F26142"/>
<path d="M755.844 18.9718L761.24 28.7854L471.89 145.725L466.494 135.911L755.844 18.9718Z" fill="#F26142"/>
<path d="M772.717 37.054L778.112 46.8676L488.762 163.807L483.367 153.993L772.717 37.054Z" fill="#F26142"/>
</g>
</mask>
<g mask="url(#mask1_546_83)">
<path fill-rule="evenodd" clip-rule="evenodd" d="M631 23.9883H25V113H631V23.9883ZM623.97 31.0275H32.0305V106.973H623.97V31.0275Z" fill="#9BE228"/>
</g>
<path d="M61.8594 59.2344L72.6719 73.2344V59.2344H78.3906V78H69.2969L58.4844 63.9688V78H52.7656V59.2344H61.8594ZM82.8438 59.2344H88.5625V69.875L88.5781 70.9219C88.5781 71.651 88.8073 72.224 89.2656 72.6406C89.724 73.0469 90.3958 73.25 91.2812 73.25C91.6458 73.25 92.1979 73.2708 92.9375 73.3125C93.6771 73.3542 94.2292 73.375 94.5938 73.375C96.3438 73.375 97.6042 73.3281 98.375 73.2344C99.1458 73.1406 99.7396 72.9062 100.156 72.5312C100.573 72.1458 100.781 71.6094 100.781 70.9219L100.828 69.4844V59.2344H106.547V71.5312L106.469 72.4062C106.469 73.2083 106.349 73.9219 106.109 74.5469C105.88 75.1719 105.562 75.7188 105.156 76.1875C104.438 77 103.271 77.5781 101.656 77.9219L100.812 78.0781C99.9375 78.1719 97.6562 78.2188 93.9688 78.2188L89.9375 78.1562C86.6667 78.1562 84.6354 77.2135 83.8438 75.3281C83.5417 74.6615 83.3073 73.9844 83.1406 73.2969C82.974 72.599 82.8906 71.8646 82.8906 71.0938L82.8438 69.5781V59.2344ZM127.672 64.25C127.203 63.9896 126.536 63.8594 125.672 63.8594H122.188C121.302 63.8594 120.625 63.8646 120.156 63.875C119.698 63.8854 119.281 63.8958 118.906 63.9062C118.333 63.9062 117.854 64.026 117.469 64.2656C117.094 64.4948 116.828 64.8281 116.672 65.2656C116.589 65.4948 116.526 65.8281 116.484 66.2656C116.443 66.6927 116.422 67.2708 116.422 68C116.422 69.8958 116.484 71.1042 116.609 71.625C116.911 72.7812 117.859 73.3594 119.453 73.3594L123.234 73.375L126.391 73.3906C127.755 73.3906 128.51 72.7448 128.656 71.4531L128.688 70.7656H134.406V71.6875C134.406 73.2188 134.24 74.4219 133.906 75.2969C133.781 75.6927 133.562 76.0417 133.25 76.3438C132.385 77.2396 130.807 77.7969 128.516 78.0156C128.047 78.0573 127.536 78.099 126.984 78.1406C126.432 78.1823 125.781 78.2031 125.031 78.2031L122.828 78.2188C121.984 78.2188 121.266 78.2135 120.672 78.2031C120.078 78.1927 119.51 78.1823 118.969 78.1719C118.615 78.1719 118.224 78.151 117.797 78.1094C117.38 78.0781 116.932 78.0312 116.453 77.9688C115.641 77.875 114.891 77.7031 114.203 77.4531C113.38 77.2031 112.734 76.7812 112.266 76.1875C111.557 75.375 111.12 74.3906 110.953 73.2344C110.786 72.0781 110.703 70.6771 110.703 69.0312C110.703 67.3229 110.76 65.8646 110.875 64.6562C110.875 64.3125 110.911 63.9792 110.984 63.6562C111.068 63.3229 111.182 62.9792 111.328 62.625C111.984 60.8646 113.406 59.7969 115.594 59.4219C117.281 59.151 119.599 59.0156 122.547 59.0156H125.156C128.354 59.0156 130.604 59.3333 131.906 59.9688C132.844 60.4271 133.51 61.3177 133.906 62.6406C134.073 63.224 134.156 64.3594 134.156 66.0469H128.438C128.438 65.1302 128.182 64.5312 127.672 64.25ZM144.25 59.2344V73.1562H156.828V78H138.531V59.2344H144.25ZM159.703 59.2344H180.344V63.6094H165.422V66.1719H179.516V70.2344H165.422V73.625H180.516V78H159.703V59.2344ZM193.594 59.2344H200.859L211.219 78H204.734L202.984 74.7812H191.406L189.719 78H183.234L193.594 59.2344ZM193.688 70.4062H200.656L197.25 64L193.688 70.4062ZM230.797 59.2344C231.422 59.2344 231.849 59.2448 232.078 59.2656C232.318 59.276 232.667 59.3073 233.125 59.3594C234.875 59.5365 236.068 60.1719 236.703 61.2656C236.943 61.6823 237.12 62.1198 237.234 62.5781C237.328 63.026 237.401 63.4844 237.453 63.9531C237.505 64.4115 237.531 64.8854 237.531 65.375C237.531 66.9271 237.323 68.0885 236.906 68.8594C236.49 69.6302 235.5 70.25 233.938 70.7188C235.51 71.1562 236.484 71.6927 236.859 72.3281C237.245 72.9531 237.438 74.0781 237.438 75.7031V78H231.719L231.672 76.2656C231.672 75.0885 231.531 74.3177 231.25 73.9531C230.938 73.5469 230.198 73.3438 229.031 73.3438H219.953V78H214.234V59.2344H230.797ZM219.953 64.0781V68.5H227.953C228.13 68.5 228.417 68.4948 228.812 68.4844C229.219 68.474 229.536 68.4688 229.766 68.4688C230.005 68.4688 230.219 68.4531 230.406 68.4219C230.604 68.3906 230.786 68.3333 230.953 68.25C231.526 68 231.812 67.3229 231.812 66.2188C231.812 65.4688 231.615 64.9115 231.219 64.5469C230.917 64.2656 230.339 64.125 229.484 64.125L227.812 64.0781H219.953ZM259.578 59.2344L263.234 72.4062L268.297 59.2344H274.531L279.734 72.5625L283.031 59.2344H288.656L283.344 78H276.406L271.406 65.0312L266.422 78H259.484L254.172 59.2344H259.578ZM297.938 59.2344H305.203L315.562 78H309.078L307.328 74.7812H295.75L294.062 78H287.578L297.938 59.2344ZM298.031 70.4062H305L301.594 64L298.031 70.4062ZM323.562 71.6406C323.562 72.6302 323.818 73.2656 324.328 73.5469C324.516 73.6406 324.781 73.7188 325.125 73.7812C325.479 73.8333 325.932 73.8594 326.484 73.8594L328.109 73.9062H332.297H333.812C334.969 73.9062 335.547 73.4167 335.547 72.4375C335.547 71.6146 335.151 71.1406 334.359 71.0156L333.203 70.9375L332.047 70.8906L328.609 70.75L326.938 70.6562L324.062 70.5C323.615 70.5 323.208 70.4896 322.844 70.4688C322.49 70.4375 322.01 70.3646 321.406 70.25C319.792 69.9896 318.797 69.1823 318.422 67.8281C318.203 67.0781 318.094 66.2656 318.094 65.3906C318.094 63.8073 318.24 62.6562 318.531 61.9375C319.01 60.75 319.812 59.9688 320.938 59.5938C322.062 59.2083 324.391 59.0156 327.922 59.0156C328.568 59.0156 329.49 59.0365 330.688 59.0781C331.885 59.1198 332.76 59.1406 333.312 59.1406C334.49 59.1406 335.516 59.224 336.391 59.3906C337.276 59.5573 338.01 59.7865 338.594 60.0781C339.26 60.4115 339.776 60.9167 340.141 61.5938C340.505 62.2708 340.688 63.1198 340.688 64.1406V65.4062H334.969L334.875 64.7188C334.75 64.1042 334.422 63.7031 333.891 63.5156C333.859 63.5052 333.734 63.4844 333.516 63.4531C333.099 63.3906 332.682 63.3594 332.266 63.3594L330.719 63.2969H327.375L325.891 63.3438C325.484 63.3438 325.109 63.401 324.766 63.5156C324.13 63.6615 323.812 64.0938 323.812 64.8125C323.812 65.5417 324.198 66.0052 324.969 66.2031C325.125 66.2344 325.328 66.2656 325.578 66.2969C325.828 66.3281 326.047 66.3438 326.234 66.3438L327.719 66.375L332.984 66.5469L336.047 66.6719C336.453 66.6719 336.854 66.7135 337.25 66.7969C337.656 66.8698 338.062 66.974 338.469 67.1094C340.333 67.7344 341.266 69.5312 341.266 72.5C341.266 75.7812 339.755 77.6198 336.734 78.0156C336.547 78.0365 336.281 78.0625 335.938 78.0938C335.594 78.125 335.312 78.1406 335.094 78.1406C334.521 78.1406 333.781 78.151 332.875 78.1719C331.979 78.2031 331.453 78.2188 331.297 78.2188C331.109 78.2188 330.24 78.1927 328.688 78.1406C327.146 78.099 325.953 78.0781 325.109 78.0781C324.755 78.0781 324.401 78.0677 324.047 78.0469C323.693 78.0365 323.339 78.0104 322.984 77.9688C322.193 77.9688 321.479 77.8542 320.844 77.625C320.219 77.3958 319.672 77.0833 319.203 76.6875C318.818 76.3542 318.505 75.8698 318.266 75.2344C318.026 74.5885 317.906 73.8281 317.906 72.9531L317.844 71.6406H323.562ZM365.484 59.2344V64.0781H357.266V78H351.547V64.0781H343.328V59.2344H365.484ZM368.422 59.2344H389.062V63.6094H374.141V66.1719H388.234V70.2344H374.141V73.625H389.234V78H368.422V59.2344ZM407.875 59.2344H413.594V78H407.875V59.2344ZM427.141 59.2344L437.953 73.2344V59.2344H443.672V78H434.578L423.766 63.9688V78H418.047V59.2344H427.141ZM464.484 64.25C464.016 63.9896 463.349 63.8594 462.484 63.8594H459C458.115 63.8594 457.438 63.8646 456.969 63.875C456.51 63.8854 456.094 63.8958 455.719 63.9062C455.146 63.9062 454.667 64.026 454.281 64.2656C453.906 64.4948 453.641 64.8281 453.484 65.2656C453.401 65.4948 453.339 65.8281 453.297 66.2656C453.255 66.6927 453.234 67.2708 453.234 68C453.234 69.8958 453.297 71.1042 453.422 71.625C453.724 72.7812 454.672 73.3594 456.266 73.3594L460.047 73.375L463.203 73.3906C464.568 73.3906 465.323 72.7448 465.469 71.4531L465.5 70.7656H471.219V71.6875C471.219 73.2188 471.052 74.4219 470.719 75.2969C470.594 75.6927 470.375 76.0417 470.062 76.3438C469.198 77.2396 467.62 77.7969 465.328 78.0156C464.859 78.0573 464.349 78.099 463.797 78.1406C463.245 78.1823 462.594 78.2031 461.844 78.2031L459.641 78.2188C458.797 78.2188 458.078 78.2135 457.484 78.2031C456.891 78.1927 456.323 78.1823 455.781 78.1719C455.427 78.1719 455.036 78.151 454.609 78.1094C454.193 78.0781 453.745 78.0312 453.266 77.9688C452.453 77.875 451.703 77.7031 451.016 77.4531C450.193 77.2031 449.547 76.7812 449.078 76.1875C448.37 75.375 447.932 74.3906 447.766 73.2344C447.599 72.0781 447.516 70.6771 447.516 69.0312C447.516 67.3229 447.573 65.8646 447.688 64.6562C447.688 64.3125 447.724 63.9792 447.797 63.6562C447.88 63.3229 447.995 62.9792 448.141 62.625C448.797 60.8646 450.219 59.7969 452.406 59.4219C454.094 59.151 456.411 59.0156 459.359 59.0156H461.969C465.167 59.0156 467.417 59.3333 468.719 59.9688C469.656 60.4271 470.323 61.3177 470.719 62.6406C470.885 63.224 470.969 64.3594 470.969 66.0469H465.25C465.25 65.1302 464.995 64.5312 464.484 64.25ZM482.875 78.1719C482.448 78.1719 482.005 78.1615 481.547 78.1406C481.099 78.1302 480.734 78.1198 480.453 78.1094C479.578 78.1094 478.802 77.9688 478.125 77.6875C477.448 77.4062 476.865 77 476.375 76.4688C475.958 76.0521 475.661 75.6198 475.484 75.1719C475.234 74.599 475.042 73.8073 474.906 72.7969C474.771 71.776 474.703 70.5365 474.703 69.0781L474.734 66.6406C474.734 65.8177 474.781 65.0781 474.875 64.4219C474.979 63.7552 475.13 63.1146 475.328 62.5C475.766 61.125 476.724 60.1667 478.203 59.625C478.745 59.4271 479.708 59.276 481.094 59.1719C482.479 59.0677 484.302 59.0156 486.562 59.0156L490.672 59.0312C493.547 59.0312 495.474 59.2031 496.453 59.5469C498.432 60.2344 499.568 61.6927 499.859 63.9219C499.891 64.224 499.922 64.6302 499.953 65.1406C499.984 65.651 500 66.1562 500 66.6562L500.047 69.75C500.047 71.0521 500 72.1042 499.906 72.9062C499.812 73.6979 499.615 74.4323 499.312 75.1094C498.875 76.1198 498.208 76.8906 497.312 77.4219C496.427 77.9427 495.318 78.2031 493.984 78.2031L491.078 78.2188L482.875 78.1719ZM490.172 73.375C491.078 73.375 491.76 73.3438 492.219 73.2812C492.979 73.1771 493.521 72.8073 493.844 72.1719C494.167 71.5365 494.328 70.1771 494.328 68.0938C494.328 67.0312 494.276 66.2656 494.172 65.7969C494.005 64.9219 493.536 64.375 492.766 64.1562C492.516 64.0938 492.229 64.0365 491.906 63.9844C491.583 63.9323 491.266 63.9062 490.953 63.9062L487.297 63.8594H485.234C484.911 63.8594 484.474 63.875 483.922 63.9062C483.38 63.9271 483.047 63.9375 482.922 63.9375C482.453 63.9375 482.057 64.0208 481.734 64.1875C481.411 64.3438 481.141 64.5833 480.922 64.9062C480.589 65.4062 480.422 66.9167 480.422 69.4375C480.422 71.2083 480.714 72.3229 481.297 72.7812C481.714 73.1354 482.875 73.3125 484.781 73.3125L490.172 73.375ZM503.625 59.2344H512.719L519.266 71.2969L525.953 59.2344H535.047V78H529.328V64.3125L521.531 78H517.016L509.344 64.25V78H503.625V59.2344ZM539.531 59.2344H545.25V78H539.531V59.2344ZM558.797 59.2344L569.609 73.2344V59.2344H575.328V78H566.234L555.422 63.9688V78H549.703V59.2344H558.797ZM597.391 65.75C597.391 65.1667 597.234 64.7135 596.922 64.3906C596.609 64.0677 596.172 63.9062 595.609 63.9062C595.057 63.9062 594.438 63.901 593.75 63.8906C593.062 63.8802 592.396 63.8698 591.75 63.8594L588.188 63.875C587.021 63.875 586.167 64.0573 585.625 64.4219C585.323 64.6302 585.083 64.9323 584.906 65.3281C584.74 65.7135 584.656 66.1927 584.656 66.7656L584.594 68.7812C584.594 69.6979 584.635 70.4688 584.719 71.0938C584.854 72.4271 585.479 73.1562 586.594 73.2812C587.062 73.3438 587.781 73.375 588.75 73.375H591.031L594.922 73.3594C596.682 73.3594 597.562 72.7969 597.562 71.6719V71.0625H590.438V67.2344H603.281V67.9062C603.281 71.1771 603.219 73.2292 603.094 74.0625C602.979 74.8854 602.568 75.6875 601.859 76.4688C601.234 77.1562 600.411 77.5938 599.391 77.7812C599.057 77.8438 598.703 77.9062 598.328 77.9688C597.953 78.0208 597.604 78.0469 597.281 78.0469C596.979 78.0469 595.729 78.0833 593.531 78.1562C592.271 78.1979 591.297 78.2188 590.609 78.2188L586.625 78.1875C584.969 78.1875 583.719 78.0573 582.875 77.7969C581.542 77.4115 580.562 76.6667 579.938 75.5625C579.635 75.0521 579.396 74.4323 579.219 73.7031C579.042 72.9635 578.953 72.1458 578.953 71.25C578.953 70.5521 578.948 69.9896 578.938 69.5625C578.896 67.8438 578.875 66.9062 578.875 66.75L578.891 65.3594C578.891 64.9948 578.922 64.6302 578.984 64.2656C579.047 63.901 579.151 63.526 579.297 63.1406C579.984 61.026 581.594 59.7552 584.125 59.3281C584.427 59.276 584.781 59.224 585.188 59.1719C585.604 59.1198 585.927 59.0938 586.156 59.0938L590.875 59.0156C591.833 59.0156 592.823 59.026 593.844 59.0469C594.865 59.0573 595.948 59.0677 597.094 59.0781C599.062 59.0781 600.557 59.5365 601.578 60.4531C602.599 61.3698 603.109 62.7135 603.109 64.4844V65.75H597.391Z" fill="#73FF5D"/>
<defs>
<filter id="filter0_d_546_83" x="0" y="0" width="656" height="138" filterUnits="userSpaceOnUse" color-interpolation-filters="sRGB">
<feFlood flood-opacity="0" result="BackgroundImageFix"/>
<feColorMatrix in="SourceAlpha" type="matrix" values="0 0 0 0 0 0 0 0 0 0 0 0 0 0 0 0 0 0 127 0" result="hardAlpha"/>
<feMorphology radius="10" operator="dilate" in="SourceAlpha" result="effect1_dropShadow_546_83"/>
<feOffset/>
<feGaussianBlur stdDeviation="7.5"/>
<feComposite in2="hardAlpha" operator="out"/>
<feColorMatrix type="matrix" values="0 0 0 0 0.607843 0 0 0 0 0.886275 0 0 0 0 0.156863 0 0 0 0.3 0"/>
<feBlend mode="normal" in2="BackgroundImageFix" result="effect1_dropShadow_546_83"/>
<feBlend mode="normal" in="SourceGraphic" in2="effect1_dropShadow_546_83" result="shape"/>
</filter>
</defs>
</svg>
