<svg width="562" height="128" viewBox="0 0 562 128" fill="none" xmlns="http://www.w3.org/2000/svg">
<g filter="url(#filter0_d_544_5)">
<rect x="20" y="20" width="522" height="88" fill="black"/>
</g>
<mask id="mask0_544_5" style="mask-type:alpha" maskUnits="userSpaceOnUse" x="20" y="20" width="522" height="88">
<rect x="20" y="20" width="522" height="88" fill="#D9D9D9"/>
</mask>
<g mask="url(#mask0_544_5)">
<rect width="10.8586" height="110.642" transform="matrix(0.42802 0.903769 -0.905309 0.424753 109.723 0.586914)" fill="#E22830" fill-opacity="0.5"/>
<rect width="10.8586" height="110.642" transform="matrix(0.42802 0.903769 -0.905309 0.424753 97.1538 -18.5742)" fill="#E22830" fill-opacity="0.5"/>
<rect width="10.8586" height="181.234" transform="matrix(0.42802 0.903769 -0.905309 0.424753 166.933 -0.736328)" fill="#E22830" fill-opacity="0.5"/>
<rect width="10.8586" height="242.231" transform="matrix(0.42802 0.903769 -0.905309 0.424753 228.395 -2.29102)" fill="#E22830" fill-opacity="0.5"/>
<rect width="10.8586" height="275.311" transform="matrix(0.42802 0.903769 -0.905309 0.424753 284.988 -1.2832)" fill="#E22830" fill-opacity="0.5"/>
<rect width="10.8586" height="275.311" transform="matrix(0.42802 0.903769 -0.905309 0.424753 328.587 4.33105)" fill="#E22830" fill-opacity="0.5"/>
<rect width="10.8586" height="275.311" transform="matrix(0.42802 0.903769 -0.905309 0.424753 400.045 -5.31445)" fill="#E22830" fill-opacity="0.5"/>
<rect width="10.8586" height="275.311" transform="matrix(0.42802 0.903769 -0.905309 0.424753 446.068 0.712891)" fill="#E22830" fill-opacity="0.5"/>
<rect width="10.8586" height="275.311" transform="matrix(0.42802 0.903769 -0.905309 0.424753 500.569 4.33105)" fill="#E22830" fill-opacity="0.5"/>
<rect width="10.8586" height="275.311" transform="matrix(0.42802 0.903769 -0.905309 0.424753 556.281 4.33105)" fill="#E22830" fill-opacity="0.5"/>
<rect width="10.8586" height="275.311" transform="matrix(0.42802 0.903769 -0.905309 0.424753 604.727 10.3564)" fill="#E22830" fill-opacity="0.5"/>
<rect width="10.8586" height="275.311" transform="matrix(0.42802 0.903769 -0.905309 0.424753 649.539 13.9736)" fill="#E22830" fill-opacity="0.5"/>
<rect width="10.8586" height="275.311" transform="matrix(0.42802 0.903769 -0.905309 0.424753 664.073 32.0557)" fill="#E22830" fill-opacity="0.5"/>
</g>
<mask id="mask1_544_5" style="mask-type:alpha" maskUnits="userSpaceOnUse" x="20" y="20" width="522" height="88">
<mask id="mask2_544_5" style="mask-type:alpha" maskUnits="userSpaceOnUse" x="20" y="20" width="522" height="88">
<rect x="20" y="20" width="522" height="88" fill="#F26142"/>
</mask>
<g mask="url(#mask2_544_5)">
<path d="M109.723 0.585537L114.371 10.3992L14.2053 57.3949L9.55762 47.5812L109.723 0.585537Z" fill="#F26142"/>
<path d="M97.1541 -18.5762L101.802 -8.76251L1.63622 38.2332L-3.01147 28.4195L97.1541 -18.5762Z" fill="#F26142"/>
<path d="M166.933 -0.737665L171.581 9.07599L7.50743 86.0558L2.85974 76.2422L166.933 -0.737665Z" fill="#F26142"/>
<path d="M228.394 -2.29278L233.042 7.52088L13.7475 110.409L9.09983 100.596L228.394 -2.29278Z" fill="#F26142"/>
<path d="M284.987 -1.28508L289.635 8.52858L40.3932 125.468L35.7455 115.654L284.987 -1.28508Z" fill="#F26142"/>
<path d="M328.588 4.32794L333.235 14.1416L83.9935 131.081L79.3458 121.267L328.588 4.32794Z" fill="#F26142"/>
<path d="M400.045 -5.3159L404.692 4.49776L155.451 121.437L150.803 111.623L400.045 -5.3159Z" fill="#F26142"/>
<path d="M446.068 0.7115L450.716 10.5252L201.474 127.464L196.826 117.651L446.068 0.7115Z" fill="#F26142"/>
<path d="M500.569 4.32794L505.217 14.1416L255.975 131.081L251.327 121.267L500.569 4.32794Z" fill="#F26142"/>
<path d="M556.281 4.32794L560.929 14.1416L311.687 131.081L307.039 121.267L556.281 4.32794Z" fill="#F26142"/>
<path d="M604.727 10.3553L609.375 20.169L360.133 137.108L355.485 127.295L604.727 10.3553Z" fill="#F26142"/>
<path d="M649.539 13.9718L654.187 23.7854L404.945 140.725L400.297 130.911L649.539 13.9718Z" fill="#F26142"/>
<path d="M664.073 32.054L668.72 41.8676L419.478 158.807L414.831 148.993L664.073 32.054Z" fill="#F26142"/>
</g>
</mask>
<g mask="url(#mask1_544_5)">
<path fill-rule="evenodd" clip-rule="evenodd" d="M542 20H20V108H542V20ZM535.945 26.0275H26.0559V101.973H535.945V26.0275Z" fill="#E22830"/>
</g>
<path d="M53.6562 73.1719C53.2292 73.1719 52.7865 73.1615 52.3281 73.1406C51.8802 73.1302 51.5156 73.1198 51.2344 73.1094C50.3594 73.1094 49.5833 72.9688 48.9062 72.6875C48.2292 72.4062 47.6458 72 47.1562 71.4688C46.7396 71.0521 46.4427 70.6198 46.2656 70.1719C46.0156 69.599 45.8229 68.8073 45.6875 67.7969C45.5521 66.776 45.4844 65.5365 45.4844 64.0781L45.5156 61.6406C45.5156 60.8177 45.5625 60.0781 45.6562 59.4219C45.7604 58.7552 45.9115 58.1146 46.1094 57.5C46.5469 56.125 47.5052 55.1667 48.9844 54.625C49.526 54.4271 50.4896 54.276 51.875 54.1719C53.2604 54.0677 55.0833 54.0156 57.3438 54.0156L61.4531 54.0312C64.3281 54.0312 66.2552 54.2031 67.2344 54.5469C69.2135 55.2344 70.349 56.6927 70.6406 58.9219C70.6719 59.224 70.7031 59.6302 70.7344 60.1406C70.7656 60.651 70.7812 61.1562 70.7812 61.6562L70.8281 64.75C70.8281 66.0521 70.7812 67.1042 70.6875 67.9062C70.5938 68.6979 70.3958 69.4323 70.0938 70.1094C69.6562 71.1198 68.9896 71.8906 68.0938 72.4219C67.2083 72.9427 66.099 73.2031 64.7656 73.2031L61.8594 73.2188L53.6562 73.1719ZM60.9531 68.375C61.8594 68.375 62.5417 68.3438 63 68.2812C63.7604 68.1771 64.3021 67.8073 64.625 67.1719C64.9479 66.5365 65.1094 65.1771 65.1094 63.0938C65.1094 62.0312 65.0573 61.2656 64.9531 60.7969C64.7865 59.9219 64.3177 59.375 63.5469 59.1562C63.2969 59.0938 63.0104 59.0365 62.6875 58.9844C62.3646 58.9323 62.0469 58.9062 61.7344 58.9062L58.0781 58.8594H56.0156C55.6927 58.8594 55.2552 58.875 54.7031 58.9062C54.1615 58.9271 53.8281 58.9375 53.7031 58.9375C53.2344 58.9375 52.8385 59.0208 52.5156 59.1875C52.1927 59.3438 51.9219 59.5833 51.7031 59.9062C51.3698 60.4062 51.2031 61.9167 51.2031 64.4375C51.2031 66.2083 51.4948 67.3229 52.0781 67.7812C52.4948 68.1354 53.6562 68.3125 55.5625 68.3125L60.9531 68.375ZM74.75 54.2344H80.4688V73H74.75V54.2344ZM91 54.2344V68.1562H103.578V73H85.2812V54.2344H91ZM126.562 54.2344V68.1562H139.141V73H120.844V54.2344H126.562ZM142.016 54.2344H162.656V58.6094H147.734V61.1719H161.828V65.2344H147.734V68.625H162.828V73H142.016V54.2344ZM175.906 54.2344H183.172L193.531 73H187.047L185.297 69.7812H173.719L172.031 73H165.547L175.906 54.2344ZM176 65.4062H182.969L179.562 59L176 65.4062ZM202.703 54.2344V61.25H205.25L212.578 54.2344H220.75L210.203 63.6406L222.031 73H213.703L205.125 66.0938H202.703V73H196.984V54.2344H202.703ZM232.844 54.2344H240.109L250.469 73H243.984L242.234 69.7812H230.656L228.969 73H222.484L232.844 54.2344ZM232.938 65.4062H239.906L236.5 59L232.938 65.4062ZM270.172 60.75C270.172 60.1667 270.016 59.7135 269.703 59.3906C269.391 59.0677 268.953 58.9062 268.391 58.9062C267.839 58.9062 267.219 58.901 266.531 58.8906C265.844 58.8802 265.177 58.8698 264.531 58.8594L260.969 58.875C259.802 58.875 258.948 59.0573 258.406 59.4219C258.104 59.6302 257.865 59.9323 257.688 60.3281C257.521 60.7135 257.438 61.1927 257.438 61.7656L257.375 63.7812C257.375 64.6979 257.417 65.4688 257.5 66.0938C257.635 67.4271 258.26 68.1562 259.375 68.2812C259.844 68.3438 260.562 68.375 261.531 68.375H263.812L267.703 68.3594C269.464 68.3594 270.344 67.7969 270.344 66.6719V66.0625H263.219V62.2344H276.062V62.9062C276.062 66.1771 276 68.2292 275.875 69.0625C275.76 69.8854 275.349 70.6875 274.641 71.4688C274.016 72.1562 273.193 72.5938 272.172 72.7812C271.839 72.8438 271.484 72.9062 271.109 72.9688C270.734 73.0208 270.385 73.0469 270.062 73.0469C269.76 73.0469 268.51 73.0833 266.312 73.1562C265.052 73.1979 264.078 73.2188 263.391 73.2188L259.406 73.1875C257.75 73.1875 256.5 73.0573 255.656 72.7969C254.323 72.4115 253.344 71.6667 252.719 70.5625C252.417 70.0521 252.177 69.4323 252 68.7031C251.823 67.9635 251.734 67.1458 251.734 66.25C251.734 65.5521 251.729 64.9896 251.719 64.5625C251.677 62.8438 251.656 61.9062 251.656 61.75L251.672 60.3594C251.672 59.9948 251.703 59.6302 251.766 59.2656C251.828 58.901 251.932 58.526 252.078 58.1406C252.766 56.026 254.375 54.7552 256.906 54.3281C257.208 54.276 257.562 54.224 257.969 54.1719C258.385 54.1198 258.708 54.0938 258.938 54.0938L263.656 54.0156C264.615 54.0156 265.604 54.026 266.625 54.0469C267.646 54.0573 268.729 54.0677 269.875 54.0781C271.844 54.0781 273.339 54.5365 274.359 55.4531C275.38 56.3698 275.891 57.7135 275.891 59.4844V60.75H270.172ZM279.609 54.2344H300.25V58.6094H285.328V61.1719H299.422V65.2344H285.328V68.625H300.422V73H279.609V54.2344ZM319.062 54.2344H324.781V73H319.062V54.2344ZM338.328 54.2344L349.141 68.2344V54.2344H354.859V73H345.766L334.953 58.9688V73H329.234V54.2344H338.328ZM375.672 59.25C375.203 58.9896 374.536 58.8594 373.672 58.8594H370.188C369.302 58.8594 368.625 58.8646 368.156 58.875C367.698 58.8854 367.281 58.8958 366.906 58.9062C366.333 58.9062 365.854 59.026 365.469 59.2656C365.094 59.4948 364.828 59.8281 364.672 60.2656C364.589 60.4948 364.526 60.8281 364.484 61.2656C364.443 61.6927 364.422 62.2708 364.422 63C364.422 64.8958 364.484 66.1042 364.609 66.625C364.911 67.7812 365.859 68.3594 367.453 68.3594L371.234 68.375L374.391 68.3906C375.755 68.3906 376.51 67.7448 376.656 66.4531L376.688 65.7656H382.406V66.6875C382.406 68.2188 382.24 69.4219 381.906 70.2969C381.781 70.6927 381.562 71.0417 381.25 71.3438C380.385 72.2396 378.807 72.7969 376.516 73.0156C376.047 73.0573 375.536 73.099 374.984 73.1406C374.432 73.1823 373.781 73.2031 373.031 73.2031L370.828 73.2188C369.984 73.2188 369.266 73.2135 368.672 73.2031C368.078 73.1927 367.51 73.1823 366.969 73.1719C366.615 73.1719 366.224 73.151 365.797 73.1094C365.38 73.0781 364.932 73.0312 364.453 72.9688C363.641 72.875 362.891 72.7031 362.203 72.4531C361.38 72.2031 360.734 71.7812 360.266 71.1875C359.557 70.375 359.12 69.3906 358.953 68.2344C358.786 67.0781 358.703 65.6771 358.703 64.0312C358.703 62.3229 358.76 60.8646 358.875 59.6562C358.875 59.3125 358.911 58.9792 358.984 58.6562C359.068 58.3229 359.182 57.9792 359.328 57.625C359.984 55.8646 361.406 54.7969 363.594 54.4219C365.281 54.151 367.599 54.0156 370.547 54.0156H373.156C376.354 54.0156 378.604 54.3333 379.906 54.9688C380.844 55.4271 381.51 56.3177 381.906 57.6406C382.073 58.224 382.156 59.3594 382.156 61.0469H376.438C376.438 60.1302 376.182 59.5312 375.672 59.25ZM394.062 73.1719C393.635 73.1719 393.193 73.1615 392.734 73.1406C392.286 73.1302 391.922 73.1198 391.641 73.1094C390.766 73.1094 389.99 72.9688 389.312 72.6875C388.635 72.4062 388.052 72 387.562 71.4688C387.146 71.0521 386.849 70.6198 386.672 70.1719C386.422 69.599 386.229 68.8073 386.094 67.7969C385.958 66.776 385.891 65.5365 385.891 64.0781L385.922 61.6406C385.922 60.8177 385.969 60.0781 386.062 59.4219C386.167 58.7552 386.318 58.1146 386.516 57.5C386.953 56.125 387.911 55.1667 389.391 54.625C389.932 54.4271 390.896 54.276 392.281 54.1719C393.667 54.0677 395.49 54.0156 397.75 54.0156L401.859 54.0312C404.734 54.0312 406.661 54.2031 407.641 54.5469C409.62 55.2344 410.755 56.6927 411.047 58.9219C411.078 59.224 411.109 59.6302 411.141 60.1406C411.172 60.651 411.188 61.1562 411.188 61.6562L411.234 64.75C411.234 66.0521 411.188 67.1042 411.094 67.9062C411 68.6979 410.802 69.4323 410.5 70.1094C410.062 71.1198 409.396 71.8906 408.5 72.4219C407.615 72.9427 406.505 73.2031 405.172 73.2031L402.266 73.2188L394.062 73.1719ZM401.359 68.375C402.266 68.375 402.948 68.3438 403.406 68.2812C404.167 68.1771 404.708 67.8073 405.031 67.1719C405.354 66.5365 405.516 65.1771 405.516 63.0938C405.516 62.0312 405.464 61.2656 405.359 60.7969C405.193 59.9219 404.724 59.375 403.953 59.1562C403.703 59.0938 403.417 59.0365 403.094 58.9844C402.771 58.9323 402.453 58.9062 402.141 58.9062L398.484 58.8594H396.422C396.099 58.8594 395.661 58.875 395.109 58.9062C394.568 58.9271 394.234 58.9375 394.109 58.9375C393.641 58.9375 393.245 59.0208 392.922 59.1875C392.599 59.3438 392.328 59.5833 392.109 59.9062C391.776 60.4062 391.609 61.9167 391.609 64.4375C391.609 66.2083 391.901 67.3229 392.484 67.7812C392.901 68.1354 394.062 68.3125 395.969 68.3125L401.359 68.375ZM414.812 54.2344H423.906L430.453 66.2969L437.141 54.2344H446.234V73H440.516V59.3125L432.719 73H428.203L420.531 59.25V73H414.812V54.2344ZM450.719 54.2344H456.438V73H450.719V54.2344ZM469.984 54.2344L480.797 68.2344V54.2344H486.516V73H477.422L466.609 58.9688V73H460.891V54.2344H469.984ZM508.578 60.75C508.578 60.1667 508.422 59.7135 508.109 59.3906C507.797 59.0677 507.359 58.9062 506.797 58.9062C506.245 58.9062 505.625 58.901 504.938 58.8906C504.25 58.8802 503.583 58.8698 502.938 58.8594L499.375 58.875C498.208 58.875 497.354 59.0573 496.812 59.4219C496.51 59.6302 496.271 59.9323 496.094 60.3281C495.927 60.7135 495.844 61.1927 495.844 61.7656L495.781 63.7812C495.781 64.6979 495.823 65.4688 495.906 66.0938C496.042 67.4271 496.667 68.1562 497.781 68.2812C498.25 68.3438 498.969 68.375 499.938 68.375H502.219L506.109 68.3594C507.87 68.3594 508.75 67.7969 508.75 66.6719V66.0625H501.625V62.2344H514.469V62.9062C514.469 66.1771 514.406 68.2292 514.281 69.0625C514.167 69.8854 513.755 70.6875 513.047 71.4688C512.422 72.1562 511.599 72.5938 510.578 72.7812C510.245 72.8438 509.891 72.9062 509.516 72.9688C509.141 73.0208 508.792 73.0469 508.469 73.0469C508.167 73.0469 506.917 73.0833 504.719 73.1562C503.458 73.1979 502.484 73.2188 501.797 73.2188L497.812 73.1875C496.156 73.1875 494.906 73.0573 494.062 72.7969C492.729 72.4115 491.75 71.6667 491.125 70.5625C490.823 70.0521 490.583 69.4323 490.406 68.7031C490.229 67.9635 490.141 67.1458 490.141 66.25C490.141 65.5521 490.135 64.9896 490.125 64.5625C490.083 62.8438 490.062 61.9062 490.062 61.75L490.078 60.3594C490.078 59.9948 490.109 59.6302 490.172 59.2656C490.234 58.901 490.339 58.526 490.484 58.1406C491.172 56.026 492.781 54.7552 495.312 54.3281C495.615 54.276 495.969 54.224 496.375 54.1719C496.792 54.1198 497.115 54.0938 497.344 54.0938L502.062 54.0156C503.021 54.0156 504.01 54.026 505.031 54.0469C506.052 54.0573 507.135 54.0677 508.281 54.0781C510.25 54.0781 511.745 54.5365 512.766 55.4531C513.786 56.3698 514.297 57.7135 514.297 59.4844V60.75H508.578Z" fill="#E22828"/>
<defs>
<filter id="filter0_d_544_5" x="0" y="0" width="562" height="128" filterUnits="userSpaceOnUse" color-interpolation-filters="sRGB">
<feFlood flood-opacity="0" result="BackgroundImageFix"/>
<feColorMatrix in="SourceAlpha" type="matrix" values="0 0 0 0 0 0 0 0 0 0 0 0 0 0 0 0 0 0 127 0" result="hardAlpha"/>
<feMorphology radius="5" operator="dilate" in="SourceAlpha" result="effect1_dropShadow_544_5"/>
<feOffset/>
<feGaussianBlur stdDeviation="7.5"/>
<feComposite in2="hardAlpha" operator="out"/>
<feColorMatrix type="matrix" values="0 0 0 0 0.886275 0 0 0 0 0.156863 0 0 0 0 0.188235 0 0 0 0.35 0"/>
<feBlend mode="normal" in2="BackgroundImageFix" result="effect1_dropShadow_544_5"/>
<feBlend mode="normal" in="SourceGraphic" in2="effect1_dropShadow_544_5" result="shape"/>
</filter>
</defs>
</svg>
